<ttFont>
    <TTGlyph name=".notdef" xMin="93" yMin="-200" xMax="410" yMax="800">
      <contour>
        <pt x="410" y="800" on="1"/>
        <pt x="410" y="-200" on="1"/>
        <pt x="93" y="-200" on="1"/>
        <pt x="93" y="800" on="1"/>
      </contour>
      <contour>
        <pt x="333" y="733" on="1"/>
        <pt x="168" y="733" on="1"/>
        <pt x="168" y="700" on="1"/>
        <pt x="233" y="700" on="1"/>
        <pt x="233" y="663" on="1"/>
        <pt x="167" y="663" on="1"/>
        <pt x="167" y="630" on="1"/>
        <pt x="333" y="630" on="1"/>
        <pt x="333" y="663" on="1"/>
        <pt x="267" y="663" on="1"/>
        <pt x="267" y="700" on="1"/>
        <pt x="333" y="700" on="1"/>
      </contour>
      <contour>
        <pt x="267" y="604" on="1"/>
        <pt x="167" y="604" on="1"/>
        <pt x="167" y="500" on="1"/>
        <pt x="333" y="500" on="1"/>
        <pt x="333" y="534" on="1"/>
        <pt x="267" y="534" on="1"/>
      </contour>
      <contour>
        <pt x="233" y="570" on="1"/>
        <pt x="233" y="534" on="1"/>
        <pt x="200" y="534" on="1"/>
        <pt x="200" y="570" on="1"/>
      </contour>
      <contour>
        <pt x="333" y="473" on="1"/>
        <pt x="167" y="473" on="1"/>
        <pt x="167" y="440" on="1"/>
        <pt x="233" y="440" on="1"/>
        <pt x="233" y="403" on="1"/>
        <pt x="167" y="403" on="1"/>
        <pt x="167" y="370" on="1"/>
        <pt x="267" y="370" on="1"/>
        <pt x="267" y="440" on="1"/>
        <pt x="333" y="440" on="1"/>
      </contour>
      <contour>
        <pt x="333" y="413" on="1"/>
        <pt x="300" y="413" on="1"/>
        <pt x="300" y="347" on="1"/>
        <pt x="167" y="347" on="1"/>
        <pt x="167" y="313" on="1"/>
        <pt x="333" y="313" on="1"/>
      </contour>
      <contour>
        <pt x="333" y="291" on="1"/>
        <pt x="233" y="291" on="1"/>
        <pt x="233" y="235" on="1"/>
        <pt x="267" y="235" on="1"/>
        <pt x="267" y="258" on="1"/>
        <pt x="300" y="258" on="1"/>
        <pt x="300" y="211" on="1"/>
        <pt x="200" y="211" on="1"/>
        <pt x="200" y="291" on="1"/>
        <pt x="167" y="291" on="1"/>
        <pt x="167" y="178" on="1"/>
        <pt x="333" y="178" on="1"/>
      </contour>
      <contour>
        <pt x="333" y="118" on="1"/>
        <pt x="167" y="118" on="1"/>
        <pt x="167" y="5" on="1"/>
        <pt x="333" y="5" on="1"/>
      </contour>
      <contour>
        <pt x="300" y="85" on="1"/>
        <pt x="300" y="38" on="1"/>
        <pt x="200" y="38" on="1"/>
        <pt x="200" y="85" on="1"/>
      </contour>
      <contour>
        <pt x="333" y="-18" on="1"/>
        <pt x="167" y="-18" on="1"/>
        <pt x="167" y="-51" on="1"/>
        <pt x="237" y="-51" on="1"/>
        <pt x="167" y="-98" on="1"/>
        <pt x="167" y="-131" on="1"/>
        <pt x="333" y="-131" on="1"/>
        <pt x="333" y="-98" on="1"/>
        <pt x="231" y="-98" on="1"/>
        <pt x="301" y="-51" on="1"/>
        <pt x="333" y="-51" on="1"/>
      </contour>
    </TTGlyph>
    <TTGlyph name="A" xMin="45" yMin="0" xMax="625" yMax="680">
      <contour>
        <pt x="539" y="0" on="1"/>
        <pt x="477" y="170" on="1"/>
        <pt x="191" y="170" on="1"/>
        <pt x="129" y="0" on="1"/>
        <pt x="45" y="0" on="1"/>
        <pt x="292" y="680" on="1"/>
        <pt x="376" y="680" on="1"/>
        <pt x="625" y="0" on="1"/>
      </contour>
      <contour>
        <pt x="419" y="250" on="1"/>
        <pt x="449" y="246" on="1"/>
        <pt x="348" y="525" on="1"/>
        <pt x="334" y="578" on="1"/>
        <pt x="320" y="525" on="1"/>
        <pt x="219" y="248" on="1"/>
        <pt x="247" y="251" on="1"/>
      </contour>
    </TTGlyph>
    <TTGlyph name="B" xMin="85" yMin="0" xMax="536" yMax="680">
      <contour>
        <pt x="536" y="110" on="0"/>
        <pt x="432" y="10" on="0"/>
        <pt x="351" y="2" on="1"/>
        <pt x="351" y="0" on="1"/>
        <pt x="85" y="0" on="1"/>
        <pt x="85" y="680" on="1"/>
        <pt x="311" y="680" on="1"/>
        <pt x="399" y="677" on="0"/>
        <pt x="506" y="576" on="0"/>
        <pt x="506" y="490" on="1"/>
        <pt x="506" y="385" on="0"/>
        <pt x="413" y="346" on="1"/>
        <pt x="536" y="316" on="0"/>
        <pt x="536" y="190" on="1"/>
      </contour>
      <contour>
        <pt x="165" y="605" on="1"/>
        <pt x="165" y="375" on="1"/>
        <pt x="291" y="375" on="1"/>
        <pt x="351" y="375" on="0"/>
        <pt x="426" y="438" on="0"/>
        <pt x="426" y="490" on="1"/>
        <pt x="426" y="546" on="0"/>
        <pt x="361" y="605" on="0"/>
        <pt x="301" y="605" on="1"/>
      </contour>
      <contour>
        <pt x="382" y="75" on="0"/>
        <pt x="456" y="135" on="0"/>
        <pt x="456" y="190" on="1"/>
        <pt x="456" y="243" on="0"/>
        <pt x="390" y="305" on="0"/>
        <pt x="331" y="305" on="1"/>
        <pt x="165" y="305" on="1"/>
        <pt x="165" y="75" on="1"/>
        <pt x="321" y="75" on="1"/>
      </contour>
    </TTGlyph>
    <TTGlyph name="C" xMin="55" yMin="-20" xMax="592" yMax="698">
      <contour>
        <pt x="508" y="582" on="0"/>
        <pt x="427" y="618" on="0"/>
        <pt x="374" y="618" on="1"/>
        <pt x="308" y="618" on="0"/>
        <pt x="198" y="548" on="0"/>
        <pt x="135" y="421" on="0"/>
        <pt x="135" y="339" on="1"/>
        <pt x="135" y="257" on="0"/>
        <pt x="206" y="130" on="0"/>
        <pt x="333" y="60" on="0"/>
        <pt x="414" y="60" on="1"/>
        <pt x="448" y="60" on="0"/>
        <pt x="511" y="69" on="0"/>
        <pt x="551" y="79" on="0"/>
        <pt x="556" y="81" on="1"/>
        <pt x="574" y="9" on="1"/>
        <pt x="569" y="7" on="0"/>
        <pt x="528" y="-7" on="0"/>
        <pt x="457" y="-20" on="0"/>
        <pt x="414" y="-20" on="1"/>
        <pt x="306" y="-20" on="0"/>
        <pt x="143" y="71" on="0"/>
        <pt x="55" y="234" on="0"/>
        <pt x="55" y="339" on="1"/>
        <pt x="55" y="443" on="0"/>
        <pt x="136" y="607" on="0"/>
        <pt x="281" y="698" on="0"/>
        <pt x="374" y="698" on="1"/>
        <pt x="446" y="698" on="0"/>
        <pt x="559" y="646" on="0"/>
        <pt x="592" y="599" on="1"/>
        <pt x="529" y="550" on="1"/>
      </contour>
    </TTGlyph>
    <TTGlyph name="D" xMin="85" yMin="0" xMax="621" yMax="680">
      <contour>
        <pt x="421" y="680" on="0"/>
        <pt x="556" y="584" on="0"/>
        <pt x="621" y="429" on="0"/>
        <pt x="621" y="340" on="1"/>
        <pt x="621" y="251" on="0"/>
        <pt x="551" y="96" on="0"/>
        <pt x="411" y="0" on="0"/>
        <pt x="311" y="0" on="1"/>
        <pt x="85" y="0" on="1"/>
        <pt x="85" y="680" on="1"/>
        <pt x="321" y="680" on="1"/>
      </contour>
      <contour>
        <pt x="386" y="75" on="0"/>
        <pt x="488" y="154" on="0"/>
        <pt x="536" y="275" on="0"/>
        <pt x="536" y="340" on="1"/>
        <pt x="536" y="406" on="0"/>
        <pt x="493" y="526" on="0"/>
        <pt x="396" y="605" on="0"/>
        <pt x="321" y="605" on="1"/>
        <pt x="165" y="605" on="1"/>
        <pt x="165" y="75" on="1"/>
        <pt x="311" y="75" on="1"/>
      </contour>
    </TTGlyph>
    <TTGlyph name="E" xMin="85" yMin="0" xMax="476" yMax="680">
      <contour>
        <pt x="165" y="77" on="1"/>
        <pt x="476" y="77" on="1"/>
        <pt x="476" y="0" on="1"/>
        <pt x="85" y="0" on="1"/>
        <pt x="85" y="680" on="1"/>
        <pt x="475" y="680" on="1"/>
        <pt x="475" y="603" on="1"/>
        <pt x="165" y="603" on="1"/>
        <pt x="165" y="378" on="1"/>
        <pt x="406" y="378" on="1"/>
        <pt x="406" y="302" on="1"/>
        <pt x="165" y="302" on="1"/>
      </contour>
    </TTGlyph>
    <TTGlyph name="F" xMin="85" yMin="0" xMax="485" yMax="680">
      <contour>
        <pt x="485" y="603" on="1"/>
        <pt x="165" y="603" on="1"/>
        <pt x="165" y="378" on="1"/>
        <pt x="416" y="378" on="1"/>
        <pt x="416" y="302" on="1"/>
        <pt x="165" y="302" on="1"/>
        <pt x="165" y="0" on="1"/>
        <pt x="85" y="0" on="1"/>
        <pt x="85" y="680" on="1"/>
        <pt x="485" y="680" on="1"/>
      </contour>
    </TTGlyph>
    <TTGlyph name="G" xMin="55" yMin="-20" xMax="604" yMax="698">
      <contour>
        <pt x="604" y="350" on="1"/>
        <pt x="604" y="-1" on="1"/>
        <pt x="544" y="0" on="1"/>
        <pt x="532" y="56" on="1"/>
        <pt x="516" y="22" on="0"/>
        <pt x="441" y="-20" on="0"/>
        <pt x="384" y="-20" on="1"/>
        <pt x="286" y="-20" on="0"/>
        <pt x="137" y="71" on="0"/>
        <pt x="55" y="234" on="0"/>
        <pt x="55" y="339" on="1"/>
        <pt x="55" y="443" on="0"/>
        <pt x="136" y="607" on="0"/>
        <pt x="281" y="698" on="0"/>
        <pt x="374" y="698" on="1"/>
        <pt x="446" y="698" on="0"/>
        <pt x="559" y="646" on="0"/>
        <pt x="592" y="599" on="1"/>
        <pt x="535" y="548" on="1"/>
        <pt x="508" y="581" on="0"/>
        <pt x="426" y="618" on="0"/>
        <pt x="374" y="618" on="1"/>
        <pt x="308" y="618" on="0"/>
        <pt x="198" y="548" on="0"/>
        <pt x="135" y="421" on="0"/>
        <pt x="135" y="339" on="1"/>
        <pt x="135" y="256" on="0"/>
        <pt x="198" y="127" on="0"/>
        <pt x="314" y="55" on="0"/>
        <pt x="389" y="55" on="1"/>
        <pt x="494" y="55" on="0"/>
        <pt x="530" y="135" on="1"/>
        <pt x="531" y="270" on="1"/>
        <pt x="351" y="270" on="1"/>
        <pt x="351" y="330" on="1"/>
      </contour>
      <contour>
        <pt x="546" y="212" on="1"/>
        <pt x="546" y="223" on="1"/>
      </contour>
    </TTGlyph>
    <TTGlyph name="H" xMin="85" yMin="0" xMax="605" yMax="680">
      <contour>
        <pt x="525" y="680" on="1"/>
        <pt x="605" y="680" on="1"/>
        <pt x="605" y="0" on="1"/>
        <pt x="525" y="0" on="1"/>
        <pt x="525" y="300" on="1"/>
        <pt x="165" y="300" on="1"/>
        <pt x="165" y="0" on="1"/>
        <pt x="85" y="0" on="1"/>
        <pt x="85" y="680" on="1"/>
        <pt x="165" y="680" on="1"/>
        <pt x="165" y="377" on="1"/>
        <pt x="525" y="377" on="1"/>
      </contour>
    </TTGlyph>
    <TTGlyph name="I" xMin="85" yMin="0" xMax="515" yMax="680">
      <contour>
        <pt x="335" y="70" on="1"/>
        <pt x="515" y="70" on="1"/>
        <pt x="515" y="0" on="1"/>
        <pt x="95" y="0" on="1"/>
        <pt x="95" y="70" on="1"/>
        <pt x="255" y="86" on="1"/>
        <pt x="255" y="603" on="1"/>
        <pt x="85" y="603" on="1"/>
        <pt x="85" y="680" on="1"/>
        <pt x="505" y="680" on="1"/>
        <pt x="505" y="603" on="1"/>
        <pt x="335" y="603" on="1"/>
      </contour>
    </TTGlyph>
    <TTGlyph name="J" xMin="56" yMin="-21" xMax="515" yMax="690">
      <contour>
        <pt x="515" y="690" on="1"/>
        <pt x="515" y="259" on="1"/>
        <pt x="515" y="124" on="0"/>
        <pt x="391" y="-21" on="0"/>
        <pt x="285" y="-21" on="1"/>
        <pt x="199" y="-21" on="0"/>
        <pt x="78" y="71" on="0"/>
        <pt x="56" y="160" on="1"/>
        <pt x="123" y="180" on="1"/>
        <pt x="146" y="116" on="0"/>
        <pt x="230" y="59" on="0"/>
        <pt x="285" y="59" on="1"/>
        <pt x="353" y="59" on="0"/>
        <pt x="435" y="154" on="0"/>
        <pt x="435" y="259" on="1"/>
        <pt x="435" y="600" on="1"/>
        <pt x="186" y="600" on="1"/>
        <pt x="186" y="670" on="1"/>
      </contour>
    </TTGlyph>
    <TTGlyph name="K" xMin="85" yMin="-15" xMax="571" yMax="680">
      <contour>
        <pt x="326" y="289" on="0"/>
        <pt x="401" y="192" on="0"/>
        <pt x="496" y="102" on="0"/>
        <pt x="571" y="46" on="1"/>
        <pt x="507" y="-15" on="1"/>
        <pt x="423" y="36" on="0"/>
        <pt x="281" y="227" on="0"/>
        <pt x="236" y="329" on="1"/>
        <pt x="165" y="245" on="1"/>
        <pt x="165" y="0" on="1"/>
        <pt x="85" y="0" on="1"/>
        <pt x="85" y="680" on="1"/>
        <pt x="165" y="680" on="1"/>
        <pt x="165" y="366" on="1"/>
        <pt x="431" y="680" on="1"/>
        <pt x="534" y="680" on="1"/>
        <pt x="271" y="371" on="1"/>
      </contour>
    </TTGlyph>
    <TTGlyph name="L" xMin="85" yMin="0" xMax="476" yMax="680">
      <contour>
        <pt x="165" y="77" on="1"/>
        <pt x="476" y="77" on="1"/>
        <pt x="476" y="0" on="1"/>
        <pt x="85" y="0" on="1"/>
        <pt x="85" y="680" on="1"/>
        <pt x="165" y="680" on="1"/>
      </contour>
    </TTGlyph>
    <TTGlyph name="M" xMin="85" yMin="0" xMax="744" yMax="680">
      <contour>
        <pt x="674" y="680" on="1"/>
        <pt x="744" y="680" on="1"/>
        <pt x="744" y="0" on="1"/>
        <pt x="664" y="0" on="1"/>
        <pt x="664" y="472" on="1"/>
        <pt x="672" y="515" on="1"/>
        <pt x="652" y="473" on="1"/>
        <pt x="444" y="110" on="1"/>
        <pt x="385" y="110" on="1"/>
        <pt x="177" y="473" on="1"/>
        <pt x="160" y="508" on="1"/>
        <pt x="165" y="472" on="1"/>
        <pt x="165" y="0" on="1"/>
        <pt x="85" y="0" on="1"/>
        <pt x="85" y="680" on="1"/>
        <pt x="155" y="680" on="1"/>
        <pt x="404" y="231" on="1"/>
        <pt x="414" y="207" on="1"/>
        <pt x="425" y="231" on="1"/>
      </contour>
    </TTGlyph>
    <TTGlyph name="N" xMin="85" yMin="0" xMax="625" yMax="680">
      <contour>
        <pt x="545" y="680" on="1"/>
        <pt x="625" y="680" on="1"/>
        <pt x="625" y="0" on="1"/>
        <pt x="545" y="0" on="1"/>
        <pt x="179" y="522" on="1"/>
        <pt x="158" y="556" on="1"/>
        <pt x="163" y="532" on="1"/>
        <pt x="165" y="0" on="1"/>
        <pt x="85" y="0" on="1"/>
        <pt x="85" y="680" on="1"/>
        <pt x="165" y="680" on="1"/>
        <pt x="532" y="156" on="1"/>
        <pt x="551" y="125" on="1"/>
        <pt x="547" y="145" on="1"/>
      </contour>
    </TTGlyph>
    <TTGlyph name="O" xMin="55" yMin="-20" xMax="675" yMax="700">
      <contour>
        <pt x="277" y="-20" on="0"/>
        <pt x="135" y="71" on="0"/>
        <pt x="55" y="235" on="0"/>
        <pt x="55" y="340" on="1"/>
        <pt x="55" y="445" on="0"/>
        <pt x="135" y="609" on="0"/>
        <pt x="277" y="700" on="0"/>
        <pt x="365" y="700" on="1"/>
        <pt x="453" y="700" on="0"/>
        <pt x="595" y="609" on="0"/>
        <pt x="675" y="445" on="0"/>
        <pt x="675" y="340" on="1"/>
        <pt x="675" y="235" on="0"/>
        <pt x="595" y="71" on="0"/>
        <pt x="453" y="-20" on="0"/>
        <pt x="365" y="-20" on="1"/>
      </contour>
      <contour>
        <pt x="427" y="60" on="0"/>
        <pt x="533" y="127" on="0"/>
        <pt x="595" y="254" on="0"/>
        <pt x="595" y="340" on="1"/>
        <pt x="595" y="426" on="0"/>
        <pt x="532" y="553" on="0"/>
        <pt x="427" y="620" on="0"/>
        <pt x="365" y="620" on="1"/>
        <pt x="303" y="620" on="0"/>
        <pt x="198" y="553" on="0"/>
        <pt x="135" y="426" on="0"/>
        <pt x="135" y="340" on="1"/>
        <pt x="135" y="254" on="0"/>
        <pt x="197" y="127" on="0"/>
        <pt x="303" y="60" on="0"/>
        <pt x="365" y="60" on="1"/>
      </contour>
    </TTGlyph>
    <TTGlyph name="P" xMin="85" yMin="0" xMax="543" yMax="680">
      <contour>
        <pt x="388" y="680" on="0"/>
        <pt x="486" y="629" on="0"/>
        <pt x="543" y="533" on="0"/>
        <pt x="543" y="470" on="1"/>
        <pt x="543" y="407" on="0"/>
        <pt x="486" y="311" on="0"/>
        <pt x="388" y="260" on="0"/>
        <pt x="328" y="260" on="1"/>
        <pt x="165" y="260" on="1"/>
        <pt x="165" y="0" on="1"/>
        <pt x="85" y="0" on="1"/>
        <pt x="85" y="680" on="1"/>
        <pt x="328" y="680" on="1"/>
      </contour>
      <contour>
        <pt x="389" y="340" on="0"/>
        <pt x="463" y="411" on="0"/>
        <pt x="463" y="470" on="1"/>
        <pt x="463" y="529" on="0"/>
        <pt x="389" y="600" on="0"/>
        <pt x="328" y="600" on="1"/>
        <pt x="165" y="600" on="1"/>
        <pt x="165" y="340" on="1"/>
        <pt x="328" y="340" on="1"/>
      </contour>
    </TTGlyph>
    <TTGlyph name="Q" xMin="55" yMin="-220" xMax="675" yMax="700">
      <contour>
        <pt x="452" y="-59" on="0"/>
        <pt x="548" y="-126" on="0"/>
        <pt x="600" y="-144" on="1"/>
        <pt x="553" y="-220" on="1"/>
        <pt x="407" y="-146" on="0"/>
        <pt x="360" y="-20" on="1"/>
        <pt x="273" y="-19" on="0"/>
        <pt x="134" y="73" on="0"/>
        <pt x="55" y="236" on="0"/>
        <pt x="55" y="340" on="1"/>
        <pt x="55" y="445" on="0"/>
        <pt x="135" y="609" on="0"/>
        <pt x="277" y="700" on="0"/>
        <pt x="365" y="700" on="1"/>
        <pt x="453" y="700" on="0"/>
        <pt x="595" y="609" on="0"/>
        <pt x="675" y="445" on="0"/>
        <pt x="675" y="340" on="1"/>
        <pt x="675" y="245" on="0"/>
        <pt x="609" y="93" on="0"/>
        <pt x="492" y="-3" on="0"/>
        <pt x="417" y="-16" on="1"/>
      </contour>
      <contour>
        <pt x="135" y="254" on="0"/>
        <pt x="197" y="127" on="0"/>
        <pt x="303" y="60" on="0"/>
        <pt x="365" y="60" on="1"/>
        <pt x="427" y="60" on="0"/>
        <pt x="533" y="127" on="0"/>
        <pt x="595" y="254" on="0"/>
        <pt x="595" y="340" on="1"/>
        <pt x="595" y="426" on="0"/>
        <pt x="532" y="553" on="0"/>
        <pt x="427" y="620" on="0"/>
        <pt x="365" y="620" on="1"/>
        <pt x="303" y="620" on="0"/>
        <pt x="198" y="553" on="0"/>
        <pt x="135" y="426" on="0"/>
        <pt x="135" y="340" on="1"/>
      </contour>
    </TTGlyph>
    <TTGlyph name="R" xMin="85" yMin="-15" xMax="554" yMax="680">
      <contour>
        <pt x="410" y="199" on="0"/>
        <pt x="492" y="99" on="0"/>
        <pt x="554" y="46" on="1"/>
        <pt x="490" y="-15" on="1"/>
        <pt x="422" y="46" on="0"/>
        <pt x="332" y="187" on="0"/>
        <pt x="316" y="260" on="1"/>
        <pt x="165" y="260" on="1"/>
        <pt x="165" y="0" on="1"/>
        <pt x="85" y="0" on="1"/>
        <pt x="85" y="680" on="1"/>
        <pt x="328" y="680" on="1"/>
        <pt x="388" y="680" on="0"/>
        <pt x="486" y="629" on="0"/>
        <pt x="543" y="533" on="0"/>
        <pt x="543" y="470" on="1"/>
        <pt x="543" y="387" on="0"/>
        <pt x="448" y="277" on="0"/>
        <pt x="372" y="264" on="1"/>
      </contour>
      <contour>
        <pt x="165" y="340" on="1"/>
        <pt x="328" y="340" on="1"/>
        <pt x="389" y="340" on="0"/>
        <pt x="463" y="411" on="0"/>
        <pt x="463" y="470" on="1"/>
        <pt x="463" y="529" on="0"/>
        <pt x="389" y="600" on="0"/>
        <pt x="328" y="600" on="1"/>
        <pt x="165" y="600" on="1"/>
      </contour>
    </TTGlyph>
    <TTGlyph name="S" xMin="56" yMin="-20" xMax="532" yMax="700">
      <contour>
        <pt x="118" y="141" on="1"/>
        <pt x="118" y="138" on="0"/>
        <pt x="166" y="96" on="0"/>
        <pt x="250" y="60" on="0"/>
        <pt x="308" y="60" on="1"/>
        <pt x="363" y="60" on="0"/>
        <pt x="452" y="113" on="0"/>
        <pt x="452" y="170" on="1"/>
        <pt x="452" y="207" on="0"/>
        <pt x="408" y="256" on="0"/>
        <pt x="342" y="286" on="0"/>
        <pt x="284" y="306" on="1"/>
        <pt x="215" y="329" on="0"/>
        <pt x="129" y="371" on="0"/>
        <pt x="69" y="448" on="0"/>
        <pt x="69" y="509" on="1"/>
        <pt x="69" y="567" on="0"/>
        <pt x="133" y="654" on="0"/>
        <pt x="238" y="700" on="0"/>
        <pt x="297" y="700" on="1"/>
        <pt x="357" y="700" on="0"/>
        <pt x="444" y="672" on="0"/>
        <pt x="491" y="641" on="0"/>
        <pt x="491" y="638" on="1"/>
        <pt x="440" y="579" on="1"/>
        <pt x="440" y="581" on="0"/>
        <pt x="402" y="603" on="0"/>
        <pt x="339" y="622" on="0"/>
        <pt x="297" y="622" on="1"/>
        <pt x="240" y="622" on="0"/>
        <pt x="149" y="569" on="0"/>
        <pt x="149" y="509" on="1"/>
        <pt x="149" y="475" on="0"/>
        <pt x="191" y="430" on="0"/>
        <pt x="254" y="402" on="0"/>
        <pt x="309" y="384" on="1"/>
        <pt x="382" y="359" on="0"/>
        <pt x="469" y="316" on="0"/>
        <pt x="532" y="235" on="0"/>
        <pt x="532" y="170" on="1"/>
        <pt x="532" y="108" on="0"/>
        <pt x="466" y="22" on="0"/>
        <pt x="363" y="-20" on="0"/>
        <pt x="308" y="-20" on="1"/>
        <pt x="234" y="-20" on="0"/>
        <pt x="122" y="23" on="0"/>
        <pt x="56" y="72" on="0"/>
        <pt x="56" y="76" on="1"/>
      </contour>
    </TTGlyph>
    <TTGlyph name="T" xMin="35" yMin="0" xMax="555" yMax="680">
      <contour>
        <pt x="555" y="680" on="1"/>
        <pt x="555" y="603" on="1"/>
        <pt x="335" y="603" on="1"/>
        <pt x="335" y="0" on="1"/>
        <pt x="255" y="0" on="1"/>
        <pt x="255" y="603" on="1"/>
        <pt x="35" y="603" on="1"/>
        <pt x="35" y="680" on="1"/>
      </contour>
    </TTGlyph>
    <TTGlyph name="U" xMin="85" yMin="-20" xMax="605" yMax="680">
      <contour>
        <pt x="605" y="680" on="1"/>
        <pt x="605" y="260" on="1"/>
        <pt x="605" y="119" on="0"/>
        <pt x="468" y="-20" on="0"/>
        <pt x="345" y="-20" on="1"/>
        <pt x="222" y="-20" on="0"/>
        <pt x="85" y="119" on="0"/>
        <pt x="85" y="260" on="1"/>
        <pt x="85" y="680" on="1"/>
        <pt x="165" y="680" on="1"/>
        <pt x="165" y="260" on="1"/>
        <pt x="165" y="149" on="0"/>
        <pt x="260" y="60" on="0"/>
        <pt x="345" y="60" on="1"/>
        <pt x="430" y="60" on="0"/>
        <pt x="525" y="149" on="0"/>
        <pt x="525" y="260" on="1"/>
        <pt x="525" y="680" on="1"/>
      </contour>
    </TTGlyph>
    <TTGlyph name="V" xMin="45" yMin="0" xMax="605" yMax="680">
      <contour>
        <pt x="519" y="680" on="1"/>
        <pt x="605" y="680" on="1"/>
        <pt x="366" y="0" on="1"/>
        <pt x="282" y="0" on="1"/>
        <pt x="45" y="680" on="1"/>
        <pt x="129" y="680" on="1"/>
        <pt x="310" y="155" on="1"/>
        <pt x="324" y="95" on="1"/>
        <pt x="338" y="155" on="1"/>
      </contour>
    </TTGlyph>
    <TTGlyph name="W" xMin="45" yMin="0" xMax="735" yMax="680">
      <contour>
        <pt x="655" y="680" on="1"/>
        <pt x="735" y="680" on="1"/>
        <pt x="616" y="0" on="1"/>
        <pt x="525" y="0" on="1"/>
        <pt x="396" y="479" on="1"/>
        <pt x="390" y="520" on="1"/>
        <pt x="384" y="479" on="1"/>
        <pt x="255" y="0" on="1"/>
        <pt x="164" y="0" on="1"/>
        <pt x="45" y="680" on="1"/>
        <pt x="125" y="680" on="1"/>
        <pt x="212" y="189" on="1"/>
        <pt x="218" y="143" on="1"/>
        <pt x="229" y="188" on="1"/>
        <pt x="335" y="600" on="1"/>
        <pt x="445" y="600" on="1"/>
        <pt x="551" y="188" on="1"/>
        <pt x="562" y="143" on="1"/>
        <pt x="568" y="189" on="1"/>
      </contour>
    </TTGlyph>
    <TTGlyph name="X" xMin="45" yMin="0" xMax="535" yMax="680">
      <contour>
        <pt x="332" y="331" on="1"/>
        <pt x="352" y="309" on="1"/>
        <pt x="535" y="0" on="1"/>
        <pt x="435" y="0" on="1"/>
        <pt x="307" y="219" on="1"/>
        <pt x="289" y="256" on="1"/>
        <pt x="268" y="218" on="1"/>
        <pt x="135" y="0" on="1"/>
        <pt x="45" y="0" on="1"/>
        <pt x="232" y="307" on="1"/>
        <pt x="248" y="329" on="1"/>
        <pt x="233" y="350" on="1"/>
        <pt x="55" y="680" on="1"/>
        <pt x="145" y="680" on="1"/>
        <pt x="274" y="445" on="1"/>
        <pt x="293" y="407" on="1"/>
        <pt x="314" y="447" on="1"/>
        <pt x="445" y="680" on="1"/>
        <pt x="535" y="680" on="1"/>
        <pt x="346" y="350" on="1"/>
      </contour>
    </TTGlyph>
    <TTGlyph name="Y" xMin="32" yMin="0" xMax="551" yMax="680">
      <contour>
        <pt x="551" y="680" on="1"/>
        <pt x="332" y="246" on="1"/>
        <pt x="332" y="0" on="1"/>
        <pt x="252" y="0" on="1"/>
        <pt x="252" y="246" on="1"/>
        <pt x="32" y="680" on="1"/>
        <pt x="116" y="680" on="1"/>
        <pt x="279" y="353" on="1"/>
        <pt x="293" y="301" on="1"/>
        <pt x="307" y="353" on="1"/>
        <pt x="465" y="680" on="1"/>
      </contour>
    </TTGlyph>
    <TTGlyph name="Z" xMin="55" yMin="0" xMax="535" yMax="680">
      <contour>
        <pt x="535" y="600" on="1"/>
        <pt x="156" y="80" on="1"/>
        <pt x="535" y="80" on="1"/>
        <pt x="535" y="0" on="1"/>
        <pt x="65" y="0" on="1"/>
        <pt x="55" y="80" on="1"/>
        <pt x="441" y="600" on="1"/>
        <pt x="55" y="600" on="1"/>
        <pt x="55" y="680" on="1"/>
        <pt x="525" y="680" on="1"/>
      </contour>
    </TTGlyph>
    <TTGlyph name="a" xMin="50" yMin="-20" xMax="509" yMax="520">
      <contour>
        <pt x="509" y="71" on="1"/>
        <pt x="509" y="0" on="1"/>
        <pt x="415" y="0" on="1"/>
        <pt x="375" y="99" on="1"/>
        <pt x="361" y="51" on="0"/>
        <pt x="276" y="-20" on="0"/>
        <pt x="216" y="-20" on="1"/>
        <pt x="144" y="-20" on="0"/>
        <pt x="50" y="54" on="0"/>
        <pt x="50" y="124" on="1"/>
        <pt x="50" y="195" on="0"/>
        <pt x="146" y="278" on="0"/>
        <pt x="234" y="278" on="1"/>
        <pt x="343" y="278" on="0"/>
        <pt x="375" y="304" on="1"/>
        <pt x="375" y="312" on="1"/>
        <pt x="375" y="387" on="0"/>
        <pt x="312" y="440" on="0"/>
        <pt x="258" y="440" on="1"/>
        <pt x="233" y="440" on="0"/>
        <pt x="172" y="430" on="0"/>
        <pt x="127" y="419" on="0"/>
        <pt x="121" y="417" on="1"/>
        <pt x="104" y="491" on="1"/>
        <pt x="110" y="493" on="0"/>
        <pt x="155" y="507" on="0"/>
        <pt x="224" y="520" on="0"/>
        <pt x="258" y="520" on="1"/>
        <pt x="351" y="520" on="0"/>
        <pt x="455" y="430" on="0"/>
        <pt x="455" y="312" on="1"/>
        <pt x="455" y="71" on="1"/>
      </contour>
      <contour>
        <pt x="297" y="55" on="0"/>
        <pt x="366" y="132" on="0"/>
        <pt x="375" y="186" on="1"/>
        <pt x="375" y="253" on="1"/>
        <pt x="360" y="237" on="0"/>
        <pt x="280" y="204" on="0"/>
        <pt x="226" y="204" on="1"/>
        <pt x="185" y="204" on="0"/>
        <pt x="135" y="169" on="0"/>
        <pt x="135" y="130" on="1"/>
        <pt x="135" y="94" on="0"/>
        <pt x="187" y="55" on="0"/>
        <pt x="226" y="55" on="1"/>
      </contour>
    </TTGlyph>
    <TTGlyph name="acircumflex" xMin="50" yMin="-20" xMax="509" yMax="772">
      <contour>
        <pt x="266" y="739" on="1"/>
        <pt x="185" y="570" on="1"/>
        <pt x="126" y="607" on="1"/>
        <pt x="220" y="772" on="1"/>
        <pt x="312" y="772" on="1"/>
        <pt x="410" y="604" on="1"/>
        <pt x="347" y="569" on="1"/>
      </contour>
      <contour>
        <pt x="509" y="71" on="1"/>
        <pt x="509" y="0" on="1"/>
        <pt x="415" y="0" on="1"/>
        <pt x="375" y="99" on="1"/>
        <pt x="361" y="51" on="0"/>
        <pt x="276" y="-20" on="0"/>
        <pt x="216" y="-20" on="1"/>
        <pt x="144" y="-20" on="0"/>
        <pt x="50" y="54" on="0"/>
        <pt x="50" y="124" on="1"/>
        <pt x="50" y="195" on="0"/>
        <pt x="146" y="278" on="0"/>
        <pt x="234" y="278" on="1"/>
        <pt x="343" y="278" on="0"/>
        <pt x="375" y="304" on="1"/>
        <pt x="375" y="312" on="1"/>
        <pt x="375" y="387" on="0"/>
        <pt x="312" y="440" on="0"/>
        <pt x="258" y="440" on="1"/>
        <pt x="233" y="440" on="0"/>
        <pt x="172" y="430" on="0"/>
        <pt x="127" y="419" on="0"/>
        <pt x="121" y="417" on="1"/>
        <pt x="104" y="491" on="1"/>
        <pt x="110" y="493" on="0"/>
        <pt x="155" y="507" on="0"/>
        <pt x="224" y="520" on="0"/>
        <pt x="258" y="520" on="1"/>
        <pt x="351" y="520" on="0"/>
        <pt x="455" y="430" on="0"/>
        <pt x="455" y="312" on="1"/>
        <pt x="455" y="71" on="1"/>
      </contour>
      <contour>
        <pt x="297" y="55" on="0"/>
        <pt x="366" y="132" on="0"/>
        <pt x="375" y="186" on="1"/>
        <pt x="375" y="253" on="1"/>
        <pt x="360" y="237" on="0"/>
        <pt x="280" y="204" on="0"/>
        <pt x="226" y="204" on="1"/>
        <pt x="185" y="204" on="0"/>
        <pt x="135" y="169" on="0"/>
        <pt x="135" y="130" on="1"/>
        <pt x="135" y="94" on="0"/>
        <pt x="187" y="55" on="0"/>
        <pt x="226" y="55" on="1"/>
      </contour>
    </TTGlyph>
    <TTGlyph name="acute" xMin="287" yMin="578" xMax="456" yMax="780">
      <contour>
        <pt x="287" y="588" on="1"/>
        <pt x="354" y="780" on="1"/>
        <pt x="456" y="780" on="1"/>
        <pt x="319" y="578" on="1"/>
      </contour>
    </TTGlyph>
    <TTGlyph name="adieresis" xMin="50" yMin="-20" xMax="509" yMax="710">
      <component glyphName="a" x="0" y="0" flags="0x0"/>
      <component glyphName="dieresis" x="-29" y="-8" flags="0x4"/>
    </TTGlyph>
    <TTGlyph name="ae" xMin="50" yMin="-20" xMax="814" yMax="520">
      <contour>
        <pt x="814" y="239" on="1"/>
        <pt x="457" y="239" on="1"/>
        <pt x="461" y="157" on="0"/>
        <pt x="565" y="60" on="0"/>
        <pt x="646" y="60" on="1"/>
        <pt x="682" y="60" on="0"/>
        <pt x="757" y="71" on="0"/>
        <pt x="757" y="72" on="1"/>
        <pt x="775" y="0" on="1"/>
        <pt x="771" y="-2" on="0"/>
        <pt x="738" y="-11" on="0"/>
        <pt x="680" y="-20" on="0"/>
        <pt x="646" y="-20" on="1"/>
        <pt x="551" y="-20" on="0"/>
        <pt x="418" y="70" on="0"/>
        <pt x="392" y="150" on="1"/>
        <pt x="390" y="114" on="0"/>
        <pt x="351" y="35" on="0"/>
        <pt x="273" y="-20" on="0"/>
        <pt x="216" y="-20" on="1"/>
        <pt x="144" y="-20" on="0"/>
        <pt x="50" y="54" on="0"/>
        <pt x="50" y="124" on="1"/>
        <pt x="50" y="195" on="0"/>
        <pt x="146" y="278" on="0"/>
        <pt x="234" y="278" on="1"/>
        <pt x="343" y="278" on="0"/>
        <pt x="375" y="304" on="1"/>
        <pt x="375" y="312" on="1"/>
        <pt x="375" y="387" on="0"/>
        <pt x="312" y="440" on="0"/>
        <pt x="258" y="440" on="1"/>
        <pt x="233" y="440" on="0"/>
        <pt x="167" y="430" on="0"/>
        <pt x="118" y="419" on="0"/>
        <pt x="111" y="417" on="1"/>
        <pt x="94" y="491" on="1"/>
        <pt x="101" y="493" on="0"/>
        <pt x="151" y="507" on="0"/>
        <pt x="224" y="520" on="0"/>
        <pt x="258" y="520" on="1"/>
        <pt x="322" y="520" on="0"/>
        <pt x="410" y="481" on="0"/>
        <pt x="433" y="433" on="1"/>
        <pt x="464" y="475" on="0"/>
        <pt x="553" y="520" on="0"/>
        <pt x="606" y="520" on="1"/>
        <pt x="703" y="520" on="0"/>
        <pt x="814" y="401" on="0"/>
        <pt x="814" y="289" on="1"/>
      </contour>
      <contour>
        <pt x="550" y="443" on="0"/>
        <pt x="472" y="366" on="0"/>
        <pt x="461" y="300" on="1"/>
        <pt x="726" y="311" on="1"/>
        <pt x="721" y="443" on="0"/>
        <pt x="606" y="443" on="1"/>
      </contour>
      <contour>
        <pt x="297" y="55" on="0"/>
        <pt x="366" y="132" on="0"/>
        <pt x="375" y="186" on="1"/>
        <pt x="375" y="253" on="1"/>
        <pt x="360" y="237" on="0"/>
        <pt x="280" y="204" on="0"/>
        <pt x="226" y="204" on="1"/>
        <pt x="185" y="204" on="0"/>
        <pt x="135" y="169" on="0"/>
        <pt x="135" y="130" on="1"/>
        <pt x="135" y="94" on="0"/>
        <pt x="187" y="55" on="0"/>
        <pt x="226" y="55" on="1"/>
      </contour>
    </TTGlyph>
    <TTGlyph name="agrave" xMin="50" yMin="-20" xMax="509" yMax="772">
      <component glyphName="a" x="0" y="0" flags="0x0"/>
      <component glyphName="grave" x="-8" y="-8" flags="0x4"/>
    </TTGlyph>
    <TTGlyph name="ampersand" xMin="37" yMin="-20" xMax="555" yMax="700">
      <contour>
        <pt x="555" y="319" on="1"/>
        <pt x="471" y="319" on="1"/>
        <pt x="470" y="212" on="1"/>
        <pt x="460" y="-20" on="0"/>
        <pt x="255" y="-20" on="1"/>
        <pt x="188" y="-20" on="0"/>
        <pt x="89" y="35" on="0"/>
        <pt x="37" y="130" on="0"/>
        <pt x="37" y="189" on="1"/>
        <pt x="37" y="250" on="0"/>
        <pt x="95" y="336" on="0"/>
        <pt x="148" y="358" on="1"/>
        <pt x="111" y="384" on="0"/>
        <pt x="69" y="463" on="0"/>
        <pt x="69" y="510" on="1"/>
        <pt x="69" y="565" on="0"/>
        <pt x="126" y="651" on="0"/>
        <pt x="228" y="700" on="0"/>
        <pt x="295" y="700" on="1"/>
        <pt x="338" y="700" on="0"/>
        <pt x="400" y="686" on="0"/>
        <pt x="435" y="669" on="0"/>
        <pt x="435" y="668" on="1"/>
        <pt x="410" y="599" on="1"/>
        <pt x="407" y="601" on="0"/>
        <pt x="379" y="611" on="0"/>
        <pt x="327" y="621" on="0"/>
        <pt x="295" y="621" on="1"/>
        <pt x="227" y="621" on="0"/>
        <pt x="149" y="560" on="0"/>
        <pt x="149" y="510" on="1"/>
        <pt x="149" y="476" on="0"/>
        <pt x="181" y="418" on="0"/>
        <pt x="241" y="382" on="0"/>
        <pt x="281" y="382" on="1"/>
        <pt x="391" y="406" on="1"/>
        <pt x="392" y="481" on="1"/>
        <pt x="472" y="491" on="1"/>
        <pt x="471" y="383" on="1"/>
        <pt x="555" y="390" on="1"/>
      </contour>
      <contour>
        <pt x="389" y="319" on="1"/>
        <pt x="285" y="319" on="1"/>
        <pt x="207" y="319" on="0"/>
        <pt x="117" y="250" on="0"/>
        <pt x="117" y="189" on="1"/>
        <pt x="117" y="132" on="0"/>
        <pt x="187" y="60" on="0"/>
        <pt x="255" y="60" on="1"/>
        <pt x="318" y="60" on="0"/>
        <pt x="387" y="140" on="0"/>
        <pt x="387" y="214" on="1"/>
      </contour>
    </TTGlyph>
    <TTGlyph name="asciicircum" xMin="150" yMin="477" xMax="434" yMax="680">
      <contour>
        <pt x="434" y="512" on="1"/>
        <pt x="371" y="477" on="1"/>
        <pt x="290" y="647" on="1"/>
        <pt x="209" y="478" on="1"/>
        <pt x="150" y="515" on="1"/>
        <pt x="244" y="680" on="1"/>
        <pt x="336" y="680" on="1"/>
      </contour>
    </TTGlyph>
    <TTGlyph name="asterisk" xMin="92" yMin="284" xMax="514" yMax="700">
      <contour>
        <pt x="514" y="512" on="1"/>
        <pt x="373" y="466" on="1"/>
        <pt x="470" y="332" on="1"/>
        <pt x="405" y="284" on="1"/>
        <pt x="303" y="425" on="1"/>
        <pt x="200" y="284" on="1"/>
        <pt x="135" y="332" on="1"/>
        <pt x="231" y="464" on="1"/>
        <pt x="92" y="509" on="1"/>
        <pt x="117" y="586" on="1"/>
        <pt x="263" y="539" on="1"/>
        <pt x="263" y="700" on="1"/>
        <pt x="343" y="700" on="1"/>
        <pt x="343" y="542" on="1"/>
        <pt x="489" y="589" on="1"/>
      </contour>
    </TTGlyph>
    <TTGlyph name="at" xMin="75" yMin="-173" xMax="787" yMax="673">
      <contour>
        <pt x="572" y="673" on="0"/>
        <pt x="713" y="603" on="0"/>
        <pt x="787" y="490" on="0"/>
        <pt x="787" y="426" on="1"/>
        <pt x="787" y="297" on="0"/>
        <pt x="596" y="208" on="0"/>
        <pt x="448" y="208" on="1"/>
        <pt x="412" y="208" on="0"/>
        <pt x="374" y="184" on="0"/>
        <pt x="374" y="162" on="1"/>
        <pt x="374" y="138" on="0"/>
        <pt x="421" y="114" on="0"/>
        <pt x="461" y="116" on="1"/>
        <pt x="461" y="49" on="1"/>
        <pt x="396" y="48" on="0"/>
        <pt x="299" y="109" on="0"/>
        <pt x="299" y="160" on="1"/>
        <pt x="299" y="210" on="0"/>
        <pt x="373" y="273" on="0"/>
        <pt x="454" y="273" on="1"/>
        <pt x="499" y="273" on="0"/>
        <pt x="534" y="277" on="1"/>
        <pt x="534" y="301" on="1"/>
        <pt x="534" y="355" on="0"/>
        <pt x="498" y="390" on="0"/>
        <pt x="459" y="390" on="1"/>
        <pt x="434" y="390" on="0"/>
        <pt x="362" y="375" on="0"/>
        <pt x="351" y="372" on="1"/>
        <pt x="335" y="441" on="1"/>
        <pt x="340" y="443" on="0"/>
        <pt x="378" y="452" on="0"/>
        <pt x="433" y="461" on="0"/>
        <pt x="459" y="461" on="1"/>
        <pt x="535" y="461" on="0"/>
        <pt x="603" y="382" on="0"/>
        <pt x="606" y="290" on="1"/>
        <pt x="714" y="323" on="0"/>
        <pt x="714" y="421" on="1"/>
        <pt x="714" y="476" on="0"/>
        <pt x="653" y="557" on="0"/>
        <pt x="545" y="601" on="0"/>
        <pt x="477" y="601" on="1"/>
        <pt x="385" y="601" on="0"/>
        <pt x="235" y="511" on="0"/>
        <pt x="148" y="349" on="0"/>
        <pt x="148" y="244" on="1"/>
        <pt x="148" y="140" on="0"/>
        <pt x="238" y="-18" on="0"/>
        <pt x="382" y="-103" on="0"/>
        <pt x="461" y="-103" on="1"/>
        <pt x="461" y="-173" on="1"/>
        <pt x="358" y="-173" on="0"/>
        <pt x="181" y="-67" on="0"/>
        <pt x="75" y="124" on="0"/>
        <pt x="75" y="244" on="1"/>
        <pt x="75" y="364" on="0"/>
        <pt x="178" y="560" on="0"/>
        <pt x="361" y="673" on="0"/>
        <pt x="477" y="673" on="1"/>
      </contour>
    </TTGlyph>
    <TTGlyph name="b" xMin="70" yMin="-20" xMax="527" yMax="700">
      <contour>
        <pt x="422" y="520" on="0"/>
        <pt x="527" y="387" on="0"/>
        <pt x="527" y="279" on="1"/>
        <pt x="527" y="197" on="0"/>
        <pt x="474" y="61" on="0"/>
        <pt x="370" y="-20" on="0"/>
        <pt x="298" y="-20" on="1"/>
        <pt x="244" y="-20" on="0"/>
        <pt x="165" y="23" on="0"/>
        <pt x="144" y="66" on="1"/>
        <pt x="130" y="0" on="1"/>
        <pt x="70" y="0" on="1"/>
        <pt x="70" y="690" on="1"/>
        <pt x="150" y="700" on="1"/>
        <pt x="150" y="355" on="1"/>
        <pt x="166" y="424" on="0"/>
        <pt x="250" y="520" on="0"/>
        <pt x="328" y="520" on="1"/>
      </contour>
      <contour>
        <pt x="368" y="60" on="0"/>
        <pt x="447" y="184" on="0"/>
        <pt x="447" y="279" on="1"/>
        <pt x="447" y="353" on="0"/>
        <pt x="379" y="440" on="0"/>
        <pt x="318" y="440" on="1"/>
        <pt x="270" y="440" on="0"/>
        <pt x="193" y="387" on="0"/>
        <pt x="150" y="299" on="0"/>
        <pt x="150" y="249" on="1"/>
        <pt x="150" y="186" on="1"/>
        <pt x="150" y="130" on="0"/>
        <pt x="224" y="60" on="0"/>
        <pt x="288" y="60" on="1"/>
      </contour>
    </TTGlyph>
    <TTGlyph name="bracketleft" xMin="188" yMin="-170" xMax="445" yMax="800">
      <contour>
        <pt x="445" y="-90" on="1"/>
        <pt x="445" y="-170" on="1"/>
        <pt x="188" y="-170" on="1"/>
        <pt x="188" y="800" on="1"/>
        <pt x="445" y="800" on="1"/>
        <pt x="445" y="720" on="1"/>
        <pt x="268" y="725" on="1"/>
        <pt x="268" y="-96" on="1"/>
      </contour>
    </TTGlyph>
    <TTGlyph name="bracketright" xMin="145" yMin="-170" xMax="402" yMax="800">
      <contour>
        <pt x="145" y="-90" on="1"/>
        <pt x="322" y="-96" on="1"/>
        <pt x="322" y="725" on="1"/>
        <pt x="145" y="720" on="1"/>
        <pt x="145" y="800" on="1"/>
        <pt x="402" y="800" on="1"/>
        <pt x="402" y="-170" on="1"/>
        <pt x="145" y="-170" on="1"/>
      </contour>
    </TTGlyph>
    <TTGlyph name="breve" xMin="170" yMin="561" xMax="420" yMax="687">
      <contour>
        <pt x="420" y="629" on="0"/>
        <pt x="349" y="561" on="0"/>
        <pt x="295" y="561" on="1"/>
        <pt x="241" y="561" on="0"/>
        <pt x="170" y="629" on="0"/>
        <pt x="170" y="687" on="1"/>
        <pt x="226" y="687" on="1"/>
        <pt x="226" y="667" on="0"/>
        <pt x="262" y="626" on="0"/>
        <pt x="295" y="626" on="1"/>
        <pt x="328" y="626" on="0"/>
        <pt x="364" y="667" on="0"/>
        <pt x="364" y="687" on="1"/>
        <pt x="420" y="687" on="1"/>
      </contour>
    </TTGlyph>
    <TTGlyph name="c" xMin="50" yMin="-20" xMax="487" yMax="518">
      <contour>
        <pt x="402" y="404" on="0"/>
        <pt x="337" y="441" on="0"/>
        <pt x="299" y="441" on="1"/>
        <pt x="250" y="441" on="0"/>
        <pt x="173" y="394" on="0"/>
        <pt x="130" y="306" on="0"/>
        <pt x="130" y="249" on="1"/>
        <pt x="130" y="162" on="0"/>
        <pt x="246" y="60" on="0"/>
        <pt x="339" y="60" on="1"/>
        <pt x="378" y="60" on="0"/>
        <pt x="428" y="66" on="0"/>
        <pt x="457" y="76" on="1"/>
        <pt x="476" y="11" on="1"/>
        <pt x="457" y="-1" on="0"/>
        <pt x="376" y="-20" on="0"/>
        <pt x="339" y="-20" on="1"/>
        <pt x="251" y="-20" on="0"/>
        <pt x="120" y="47" on="0"/>
        <pt x="50" y="169" on="0"/>
        <pt x="50" y="249" on="1"/>
        <pt x="50" y="329" on="0"/>
        <pt x="110" y="451" on="0"/>
        <pt x="223" y="518" on="0"/>
        <pt x="299" y="518" on="1"/>
        <pt x="366" y="518" on="0"/>
        <pt x="460" y="462" on="0"/>
        <pt x="487" y="419" on="1"/>
        <pt x="423" y="371" on="1"/>
      </contour>
    </TTGlyph>
    <TTGlyph name="caron" xMin="140" yMin="577" xMax="424" yMax="780">
      <contour>
        <pt x="361" y="780" on="1"/>
        <pt x="424" y="745" on="1"/>
        <pt x="326" y="577" on="1"/>
        <pt x="234" y="577" on="1"/>
        <pt x="140" y="742" on="1"/>
        <pt x="199" y="779" on="1"/>
        <pt x="280" y="610" on="1"/>
      </contour>
    </TTGlyph>
    <TTGlyph name="ccedilla" xMin="50" yMin="-200" xMax="487" yMax="518">
      <contour>
        <pt x="476" y="11" on="1"/>
        <pt x="457" y="-1" on="0"/>
        <pt x="380" y="-19" on="0"/>
        <pt x="344" y="-20" on="1"/>
        <pt x="344" y="-68" on="1"/>
        <pt x="344" y="-130" on="0"/>
        <pt x="258" y="-200" on="0"/>
        <pt x="177" y="-200" on="1"/>
        <pt x="177" y="-126" on="1"/>
        <pt x="229" y="-126" on="0"/>
        <pt x="270" y="-88" on="0"/>
        <pt x="270" y="-38" on="1"/>
        <pt x="270" y="-14" on="1"/>
        <pt x="167" y="4" on="0"/>
        <pt x="50" y="144" on="0"/>
        <pt x="50" y="249" on="1"/>
        <pt x="50" y="329" on="0"/>
        <pt x="110" y="451" on="0"/>
        <pt x="223" y="518" on="0"/>
        <pt x="299" y="518" on="1"/>
        <pt x="366" y="518" on="0"/>
        <pt x="460" y="462" on="0"/>
        <pt x="487" y="419" on="1"/>
        <pt x="423" y="371" on="1"/>
        <pt x="402" y="404" on="0"/>
        <pt x="337" y="441" on="0"/>
        <pt x="299" y="441" on="1"/>
        <pt x="250" y="441" on="0"/>
        <pt x="173" y="394" on="0"/>
        <pt x="130" y="306" on="0"/>
        <pt x="130" y="249" on="1"/>
        <pt x="130" y="162" on="0"/>
        <pt x="246" y="60" on="0"/>
        <pt x="339" y="60" on="1"/>
        <pt x="378" y="60" on="0"/>
        <pt x="428" y="66" on="0"/>
        <pt x="457" y="76" on="1"/>
      </contour>
    </TTGlyph>
    <TTGlyph name="cedilla" xMin="197" yMin="-200" xMax="364" yMax="56">
      <contour>
        <pt x="364" y="-68" on="1"/>
        <pt x="364" y="-130" on="0"/>
        <pt x="278" y="-200" on="0"/>
        <pt x="197" y="-200" on="1"/>
        <pt x="197" y="-126" on="1"/>
        <pt x="249" y="-126" on="0"/>
        <pt x="290" y="-88" on="0"/>
        <pt x="290" y="-38" on="1"/>
        <pt x="290" y="56" on="1"/>
        <pt x="364" y="56" on="1"/>
      </contour>
    </TTGlyph>
    <TTGlyph name="circumflex" xMin="150" yMin="577" xMax="434" yMax="780">
      <contour>
        <pt x="434" y="612" on="1"/>
        <pt x="371" y="577" on="1"/>
        <pt x="290" y="747" on="1"/>
        <pt x="209" y="578" on="1"/>
        <pt x="150" y="615" on="1"/>
        <pt x="244" y="780" on="1"/>
        <pt x="336" y="780" on="1"/>
      </contour>
    </TTGlyph>
    <TTGlyph name="colon" xMin="90" yMin="-20" xMax="234" yMax="493">
      <component glyphName="period" x="-10" y="0" flags="0x0"/>
      <component glyphName="period" x="-10" y="369" flags="0x4"/>
    </TTGlyph>
    <TTGlyph name="comma" xMin="105" yMin="-167" xMax="255" yMax="124">
      <contour>
        <pt x="215" y="124" on="0"/>
        <pt x="255" y="78" on="0"/>
        <pt x="255" y="34" on="1"/>
        <pt x="255" y="-22" on="0"/>
        <pt x="202" y="-110" on="0"/>
        <pt x="136" y="-167" on="0"/>
        <pt x="136" y="-164" on="1"/>
        <pt x="105" y="-120" on="1"/>
        <pt x="105" y="-121" on="0"/>
        <pt x="136" y="-95" on="0"/>
        <pt x="168" y="-50" on="0"/>
        <pt x="177" y="-20" on="1"/>
        <pt x="153" y="-16" on="0"/>
        <pt x="111" y="21" on="0"/>
        <pt x="111" y="52" on="1"/>
        <pt x="111" y="82" on="0"/>
        <pt x="153" y="124" on="0"/>
        <pt x="183" y="124" on="1"/>
      </contour>
    </TTGlyph>
    <TTGlyph name="d" xMin="50" yMin="-20" xMax="507" yMax="700">
      <contour>
        <pt x="507" y="690" on="1"/>
        <pt x="507" y="0" on="1"/>
        <pt x="437" y="0" on="1"/>
        <pt x="427" y="146" on="1"/>
        <pt x="411" y="76" on="0"/>
        <pt x="328" y="-20" on="0"/>
        <pt x="249" y="-20" on="1"/>
        <pt x="155" y="-20" on="0"/>
        <pt x="50" y="113" on="0"/>
        <pt x="50" y="221" on="1"/>
        <pt x="50" y="303" on="0"/>
        <pt x="103" y="439" on="0"/>
        <pt x="207" y="520" on="0"/>
        <pt x="279" y="520" on="1"/>
        <pt x="329" y="520" on="0"/>
        <pt x="405" y="483" on="0"/>
        <pt x="427" y="445" on="1"/>
        <pt x="427" y="700" on="1"/>
      </contour>
      <contour>
        <pt x="307" y="60" on="0"/>
        <pt x="384" y="113" on="0"/>
        <pt x="427" y="201" on="0"/>
        <pt x="427" y="251" on="1"/>
        <pt x="427" y="314" on="1"/>
        <pt x="427" y="370" on="0"/>
        <pt x="353" y="440" on="0"/>
        <pt x="289" y="440" on="1"/>
        <pt x="209" y="440" on="0"/>
        <pt x="130" y="316" on="0"/>
        <pt x="130" y="221" on="1"/>
        <pt x="130" y="147" on="0"/>
        <pt x="198" y="60" on="0"/>
        <pt x="259" y="60" on="1"/>
      </contour>
    </TTGlyph>
    <TTGlyph name="dieresis" xMin="111" yMin="588" xMax="478" yMax="718">
      <contour>
        <pt x="149" y="588" on="0"/>
        <pt x="111" y="626" on="0"/>
        <pt x="111" y="653" on="1"/>
        <pt x="111" y="680" on="0"/>
        <pt x="149" y="718" on="0"/>
        <pt x="176" y="718" on="1"/>
        <pt x="203" y="718" on="0"/>
        <pt x="241" y="680" on="0"/>
        <pt x="241" y="653" on="1"/>
        <pt x="241" y="626" on="0"/>
        <pt x="203" y="588" on="0"/>
        <pt x="176" y="588" on="1"/>
      </contour>
      <contour>
        <pt x="386" y="588" on="0"/>
        <pt x="348" y="626" on="0"/>
        <pt x="348" y="653" on="1"/>
        <pt x="348" y="680" on="0"/>
        <pt x="386" y="718" on="0"/>
        <pt x="413" y="718" on="1"/>
        <pt x="440" y="718" on="0"/>
        <pt x="478" y="680" on="0"/>
        <pt x="478" y="653" on="1"/>
        <pt x="478" y="626" on="0"/>
        <pt x="440" y="588" on="0"/>
        <pt x="413" y="588" on="1"/>
      </contour>
    </TTGlyph>
    <TTGlyph name="dotaccent" xMin="223" yMin="588" xMax="367" yMax="732">
      <contour>
        <pt x="265" y="588" on="0"/>
        <pt x="223" y="630" on="0"/>
        <pt x="223" y="660" on="1"/>
        <pt x="223" y="690" on="0"/>
        <pt x="265" y="732" on="0"/>
        <pt x="295" y="732" on="1"/>
        <pt x="325" y="732" on="0"/>
        <pt x="367" y="690" on="0"/>
        <pt x="367" y="660" on="1"/>
        <pt x="367" y="630" on="0"/>
        <pt x="325" y="588" on="0"/>
        <pt x="295" y="588" on="1"/>
      </contour>
    </TTGlyph>
    <TTGlyph name="e" xMin="50" yMin="-20" xMax="487" yMax="520">
      <contour>
        <pt x="487" y="239" on="1"/>
        <pt x="130" y="239" on="1"/>
        <pt x="134" y="157" on="0"/>
        <pt x="238" y="60" on="0"/>
        <pt x="319" y="60" on="1"/>
        <pt x="355" y="60" on="0"/>
        <pt x="430" y="71" on="0"/>
        <pt x="430" y="72" on="1"/>
        <pt x="448" y="0" on="1"/>
        <pt x="444" y="-2" on="0"/>
        <pt x="411" y="-11" on="0"/>
        <pt x="353" y="-20" on="0"/>
        <pt x="319" y="-20" on="1"/>
        <pt x="238" y="-20" on="0"/>
        <pt x="116" y="47" on="0"/>
        <pt x="50" y="169" on="0"/>
        <pt x="50" y="249" on="1"/>
        <pt x="50" y="328" on="0"/>
        <pt x="109" y="451" on="0"/>
        <pt x="213" y="520" on="0"/>
        <pt x="279" y="520" on="1"/>
        <pt x="376" y="520" on="0"/>
        <pt x="487" y="401" on="0"/>
        <pt x="487" y="289" on="1"/>
      </contour>
      <contour>
        <pt x="223" y="443" on="0"/>
        <pt x="145" y="366" on="0"/>
        <pt x="134" y="300" on="1"/>
        <pt x="399" y="311" on="1"/>
        <pt x="394" y="443" on="0"/>
        <pt x="279" y="443" on="1"/>
      </contour>
    </TTGlyph>
    <TTGlyph name="eacute" xMin="50" yMin="-20" xMax="487" yMax="772">
      <component glyphName="e" x="0" y="0" flags="0x0"/>
      <component glyphName="acute" x="-42" y="-8" flags="0x4"/>
    </TTGlyph>
    <TTGlyph name="ecircumflex" xMin="50" yMin="-20" xMax="487" yMax="772">
      <component glyphName="e" x="0" y="0" flags="0x0"/>
      <component glyphName="circumflex" x="-13" y="-8" flags="0x4"/>
    </TTGlyph>
    <TTGlyph name="edieresis" xMin="50" yMin="-20" xMax="487" yMax="710">
      <component glyphName="e" x="0" y="0" flags="0x0"/>
      <component glyphName="dieresis" x="-17" y="-8" flags="0x4"/>
    </TTGlyph>
    <TTGlyph name="egrave" xMin="50" yMin="-20" xMax="487" yMax="772">
      <component glyphName="e" x="0" y="0" flags="0x0"/>
      <component glyphName="grave" x="4" y="-8" flags="0x4"/>
    </TTGlyph>
    <TTGlyph name="eight" xMin="55" yMin="-20" xMax="533" yMax="700">
      <contour>
        <pt x="451" y="363" on="0"/>
        <pt x="533" y="273" on="0"/>
        <pt x="533" y="199" on="1"/>
        <pt x="533" y="136" on="0"/>
        <pt x="471" y="36" on="0"/>
        <pt x="363" y="-20" on="0"/>
        <pt x="295" y="-20" on="1"/>
        <pt x="227" y="-20" on="0"/>
        <pt x="118" y="37" on="0"/>
        <pt x="55" y="136" on="0"/>
        <pt x="55" y="199" on="1"/>
        <pt x="55" y="274" on="0"/>
        <pt x="141" y="364" on="0"/>
        <pt x="212" y="380" on="1"/>
        <pt x="160" y="395" on="0"/>
        <pt x="97" y="465" on="0"/>
        <pt x="97" y="520" on="1"/>
        <pt x="97" y="570" on="0"/>
        <pt x="148" y="652" on="0"/>
        <pt x="239" y="700" on="0"/>
        <pt x="295" y="700" on="1"/>
        <pt x="351" y="700" on="0"/>
        <pt x="441" y="652" on="0"/>
        <pt x="491" y="570" on="0"/>
        <pt x="491" y="520" on="1"/>
        <pt x="491" y="410" on="0"/>
        <pt x="381" y="380" on="1"/>
      </contour>
      <contour>
        <pt x="177" y="489" on="0"/>
        <pt x="213" y="443" on="0"/>
        <pt x="267" y="419" on="0"/>
        <pt x="295" y="419" on="1"/>
        <pt x="345" y="419" on="0"/>
        <pt x="411" y="472" on="0"/>
        <pt x="411" y="520" on="1"/>
        <pt x="411" y="568" on="0"/>
        <pt x="350" y="620" on="0"/>
        <pt x="295" y="620" on="1"/>
        <pt x="240" y="620" on="0"/>
        <pt x="177" y="568" on="0"/>
        <pt x="177" y="520" on="1"/>
      </contour>
      <contour>
        <pt x="367" y="60" on="0"/>
        <pt x="453" y="132" on="0"/>
        <pt x="453" y="199" on="1"/>
        <pt x="453" y="264" on="0"/>
        <pt x="361" y="339" on="0"/>
        <pt x="295" y="339" on="1"/>
        <pt x="253" y="339" on="0"/>
        <pt x="179" y="306" on="0"/>
        <pt x="135" y="242" on="0"/>
        <pt x="135" y="199" on="1"/>
        <pt x="135" y="132" on="0"/>
        <pt x="223" y="60" on="0"/>
        <pt x="295" y="60" on="1"/>
      </contour>
    </TTGlyph>
    <TTGlyph name="emdash" xMin="80" yMin="278" xMax="700" yMax="358">
      <contour>
        <pt x="80" y="358" on="1"/>
        <pt x="700" y="358" on="1"/>
        <pt x="700" y="278" on="1"/>
        <pt x="80" y="278" on="1"/>
      </contour>
    </TTGlyph>
    <TTGlyph name="endash" xMin="95" yMin="278" xMax="495" yMax="358">
      <contour>
        <pt x="95" y="358" on="1"/>
        <pt x="495" y="358" on="1"/>
        <pt x="495" y="278" on="1"/>
        <pt x="95" y="278" on="1"/>
      </contour>
    </TTGlyph>
    <TTGlyph name="exclam" xMin="130" yMin="-20" xMax="274" yMax="680">
      <contour>
        <pt x="248" y="680" on="1"/>
        <pt x="233" y="221" on="1"/>
        <pt x="163" y="221" on="1"/>
        <pt x="148" y="680" on="1"/>
      </contour>
      <contour>
        <pt x="172" y="-20" on="0"/>
        <pt x="130" y="22" on="0"/>
        <pt x="130" y="52" on="1"/>
        <pt x="130" y="82" on="0"/>
        <pt x="172" y="124" on="0"/>
        <pt x="202" y="124" on="1"/>
        <pt x="232" y="124" on="0"/>
        <pt x="274" y="82" on="0"/>
        <pt x="274" y="52" on="1"/>
        <pt x="274" y="22" on="0"/>
        <pt x="232" y="-20" on="0"/>
        <pt x="202" y="-20" on="1"/>
      </contour>
    </TTGlyph>
    <TTGlyph name="exclamdown" xMin="130" yMin="-200" xMax="274" yMax="500">
      <contour>
        <pt x="232" y="500" on="0"/>
        <pt x="274" y="458" on="0"/>
        <pt x="274" y="428" on="1"/>
        <pt x="274" y="398" on="0"/>
        <pt x="232" y="356" on="0"/>
        <pt x="202" y="356" on="1"/>
        <pt x="172" y="356" on="0"/>
        <pt x="130" y="398" on="0"/>
        <pt x="130" y="428" on="1"/>
        <pt x="130" y="458" on="0"/>
        <pt x="172" y="500" on="0"/>
        <pt x="202" y="500" on="1"/>
      </contour>
      <contour>
        <pt x="248" y="-200" on="1"/>
        <pt x="148" y="-200" on="1"/>
        <pt x="163" y="259" on="1"/>
        <pt x="233" y="259" on="1"/>
      </contour>
    </TTGlyph>
    <TTGlyph name="f" xMin="74" yMin="0" xMax="513" yMax="700">
      <contour>
        <pt x="335" y="623" on="0"/>
        <pt x="282" y="567" on="0"/>
        <pt x="282" y="492" on="1"/>
        <pt x="282" y="430" on="1"/>
        <pt x="495" y="430" on="1"/>
        <pt x="495" y="360" on="1"/>
        <pt x="282" y="360" on="1"/>
        <pt x="282" y="70" on="1"/>
        <pt x="434" y="70" on="1"/>
        <pt x="434" y="0" on="1"/>
        <pt x="74" y="0" on="1"/>
        <pt x="74" y="70" on="1"/>
        <pt x="202" y="89" on="1"/>
        <pt x="202" y="360" on="1"/>
        <pt x="88" y="360" on="1"/>
        <pt x="88" y="430" on="1"/>
        <pt x="202" y="455" on="1"/>
        <pt x="202" y="492" on="1"/>
        <pt x="202" y="609" on="0"/>
        <pt x="300" y="700" on="0"/>
        <pt x="379" y="700" on="1"/>
        <pt x="415" y="700" on="0"/>
        <pt x="475" y="687" on="0"/>
        <pt x="509" y="673" on="0"/>
        <pt x="513" y="671" on="1"/>
        <pt x="496" y="597" on="1"/>
        <pt x="492" y="599" on="0"/>
        <pt x="459" y="611" on="0"/>
        <pt x="407" y="623" on="0"/>
        <pt x="379" y="623" on="1"/>
      </contour>
    </TTGlyph>
    <TTGlyph name="five" xMin="67" yMin="-20" xMax="530" yMax="680">
      <contour>
        <pt x="383" y="409" on="0"/>
        <pt x="479" y="354" on="0"/>
        <pt x="530" y="258" on="0"/>
        <pt x="530" y="199" on="1"/>
        <pt x="530" y="139" on="0"/>
        <pt x="477" y="39" on="0"/>
        <pt x="375" y="-20" on="0"/>
        <pt x="304" y="-20" on="1"/>
        <pt x="221" y="-20" on="0"/>
        <pt x="116" y="48" on="0"/>
        <pt x="67" y="126" on="0"/>
        <pt x="67" y="134" on="1"/>
        <pt x="132" y="163" on="1"/>
        <pt x="132" y="159" on="0"/>
        <pt x="172" y="106" on="0"/>
        <pt x="249" y="60" on="0"/>
        <pt x="304" y="60" on="1"/>
        <pt x="377" y="60" on="0"/>
        <pt x="450" y="140" on="0"/>
        <pt x="450" y="199" on="1"/>
        <pt x="450" y="256" on="0"/>
        <pt x="383" y="329" on="0"/>
        <pt x="317" y="329" on="1"/>
        <pt x="279" y="329" on="0"/>
        <pt x="219" y="309" on="0"/>
        <pt x="182" y="286" on="0"/>
        <pt x="182" y="285" on="1"/>
        <pt x="102" y="292" on="1"/>
        <pt x="132" y="680" on="1"/>
        <pt x="471" y="680" on="1"/>
        <pt x="471" y="600" on="1"/>
        <pt x="206" y="600" on="1"/>
        <pt x="187" y="353" on="1"/>
        <pt x="206" y="376" on="0"/>
        <pt x="271" y="409" on="0"/>
        <pt x="317" y="409" on="1"/>
      </contour>
    </TTGlyph>
    <TTGlyph name="four" xMin="63" yMin="0" xMax="550" yMax="680">
      <contour>
        <pt x="550" y="225" on="1"/>
        <pt x="550" y="145" on="1"/>
        <pt x="458" y="145" on="1"/>
        <pt x="458" y="0" on="1"/>
        <pt x="378" y="0" on="1"/>
        <pt x="378" y="145" on="1"/>
        <pt x="63" y="145" on="1"/>
        <pt x="63" y="225" on="1"/>
        <pt x="378" y="680" on="1"/>
        <pt x="458" y="680" on="1"/>
        <pt x="458" y="225" on="1"/>
      </contour>
      <contour>
        <pt x="152" y="225" on="1"/>
        <pt x="378" y="225" on="1"/>
        <pt x="378" y="546" on="1"/>
      </contour>
    </TTGlyph>
    <TTGlyph name="g" xMin="50" yMin="-220" xMax="507" yMax="520">
      <contour>
        <pt x="507" y="500" on="1"/>
        <pt x="507" y="49" on="1"/>
        <pt x="507" y="-76" on="0"/>
        <pt x="376" y="-220" on="0"/>
        <pt x="248" y="-220" on="1"/>
        <pt x="209" y="-220" on="0"/>
        <pt x="138" y="-207" on="0"/>
        <pt x="94" y="-193" on="0"/>
        <pt x="88" y="-191" on="1"/>
        <pt x="106" y="-119" on="1"/>
        <pt x="112" y="-121" on="0"/>
        <pt x="155" y="-131" on="0"/>
        <pt x="218" y="-140" on="0"/>
        <pt x="248" y="-140" on="1"/>
        <pt x="336" y="-140" on="0"/>
        <pt x="427" y="-40" on="0"/>
        <pt x="427" y="49" on="1"/>
        <pt x="427" y="145" on="1"/>
        <pt x="411" y="76" on="0"/>
        <pt x="327" y="-20" on="0"/>
        <pt x="249" y="-20" on="1"/>
        <pt x="155" y="-20" on="0"/>
        <pt x="50" y="113" on="0"/>
        <pt x="50" y="221" on="1"/>
        <pt x="50" y="303" on="0"/>
        <pt x="103" y="439" on="0"/>
        <pt x="207" y="520" on="0"/>
        <pt x="279" y="520" on="1"/>
        <pt x="331" y="520" on="0"/>
        <pt x="409" y="479" on="0"/>
        <pt x="430" y="439" on="1"/>
        <pt x="447" y="510" on="1"/>
      </contour>
      <contour>
        <pt x="307" y="60" on="0"/>
        <pt x="384" y="113" on="0"/>
        <pt x="427" y="201" on="0"/>
        <pt x="427" y="251" on="1"/>
        <pt x="427" y="314" on="1"/>
        <pt x="427" y="370" on="0"/>
        <pt x="353" y="440" on="0"/>
        <pt x="289" y="440" on="1"/>
        <pt x="209" y="440" on="0"/>
        <pt x="130" y="316" on="0"/>
        <pt x="130" y="221" on="1"/>
        <pt x="130" y="147" on="0"/>
        <pt x="198" y="60" on="0"/>
        <pt x="259" y="60" on="1"/>
      </contour>
    </TTGlyph>
    <TTGlyph name="grave" xMin="135" yMin="578" xMax="304" yMax="780">
      <contour>
        <pt x="304" y="588" on="1"/>
        <pt x="272" y="578" on="1"/>
        <pt x="135" y="780" on="1"/>
        <pt x="237" y="780" on="1"/>
      </contour>
    </TTGlyph>
    <TTGlyph name="guillemotleft" xMin="51" yMin="91" xMax="457" yMax="527">
      <contour>
        <pt x="304" y="472" on="1"/>
        <pt x="132" y="309" on="1"/>
        <pt x="304" y="146" on="1"/>
        <pt x="249" y="91" on="1"/>
        <pt x="51" y="309" on="1"/>
        <pt x="249" y="527" on="1"/>
      </contour>
      <contour>
        <pt x="457" y="422" on="1"/>
        <pt x="336" y="309" on="1"/>
        <pt x="457" y="196" on="1"/>
        <pt x="402" y="141" on="1"/>
        <pt x="254" y="309" on="1"/>
        <pt x="402" y="477" on="1"/>
      </contour>
    </TTGlyph>
    <TTGlyph name="guillemotright" xMin="143" yMin="91" xMax="549" yMax="527">
      <contour>
        <pt x="351" y="527" on="1"/>
        <pt x="549" y="309" on="1"/>
        <pt x="351" y="91" on="1"/>
        <pt x="296" y="146" on="1"/>
        <pt x="468" y="309" on="1"/>
        <pt x="296" y="472" on="1"/>
      </contour>
      <contour>
        <pt x="198" y="477" on="1"/>
        <pt x="346" y="309" on="1"/>
        <pt x="198" y="141" on="1"/>
        <pt x="143" y="196" on="1"/>
        <pt x="264" y="309" on="1"/>
        <pt x="143" y="422" on="1"/>
      </contour>
    </TTGlyph>
    <TTGlyph name="guilsinglleft" xMin="165" yMin="91" xMax="418" yMax="527">
      <contour>
        <pt x="418" y="472" on="1"/>
        <pt x="246" y="309" on="1"/>
        <pt x="418" y="146" on="1"/>
        <pt x="363" y="91" on="1"/>
        <pt x="165" y="309" on="1"/>
        <pt x="363" y="527" on="1"/>
      </contour>
    </TTGlyph>
    <TTGlyph name="guilsinglright" xMin="182" yMin="91" xMax="435" yMax="527">
      <contour>
        <pt x="237" y="527" on="1"/>
        <pt x="435" y="309" on="1"/>
        <pt x="237" y="91" on="1"/>
        <pt x="182" y="146" on="1"/>
        <pt x="354" y="309" on="1"/>
        <pt x="182" y="472" on="1"/>
      </contour>
    </TTGlyph>
    <TTGlyph name="h" xMin="45" yMin="0" xMax="584" yMax="700">
      <contour>
        <pt x="584" y="70" on="1"/>
        <pt x="584" y="0" on="1"/>
        <pt x="443" y="0" on="1"/>
        <pt x="443" y="322" on="1"/>
        <pt x="443" y="375" on="0"/>
        <pt x="407" y="440" on="0"/>
        <pt x="359" y="440" on="1"/>
        <pt x="304" y="440" on="0"/>
        <pt x="222" y="372" on="0"/>
        <pt x="199" y="340" on="1"/>
        <pt x="199" y="70" on="1"/>
        <pt x="285" y="70" on="1"/>
        <pt x="285" y="0" on="1"/>
        <pt x="45" y="0" on="1"/>
        <pt x="45" y="70" on="1"/>
        <pt x="119" y="86" on="1"/>
        <pt x="119" y="690" on="1"/>
        <pt x="199" y="700" on="1"/>
        <pt x="199" y="381" on="1"/>
        <pt x="215" y="429" on="0"/>
        <pt x="298" y="520" on="0"/>
        <pt x="376" y="520" on="1"/>
        <pt x="523" y="520" on="0"/>
        <pt x="523" y="322" on="1"/>
        <pt x="523" y="70" on="1"/>
      </contour>
    </TTGlyph>
    <TTGlyph name="hungarumlaut" xMin="179" yMin="578" xMax="520" yMax="780">
      <component glyphName="acute" x="64" y="0" flags="0x0"/>
      <component glyphName="acute" x="-108" y="0" flags="0x0"/>
    </TTGlyph>
    <TTGlyph name="hyphen" xMin="85" yMin="284" xMax="385" yMax="358">
      <contour>
        <pt x="85" y="358" on="1"/>
        <pt x="385" y="358" on="1"/>
        <pt x="385" y="284" on="1"/>
        <pt x="85" y="284" on="1"/>
      </contour>
    </TTGlyph>
    <TTGlyph name="i" xMin="75" yMin="0" xMax="425" yMax="744">
      <contour>
        <pt x="216" y="600" on="0"/>
        <pt x="174" y="642" on="0"/>
        <pt x="174" y="672" on="1"/>
        <pt x="174" y="702" on="0"/>
        <pt x="216" y="744" on="0"/>
        <pt x="246" y="744" on="1"/>
        <pt x="276" y="744" on="0"/>
        <pt x="318" y="702" on="0"/>
        <pt x="318" y="672" on="1"/>
        <pt x="318" y="642" on="0"/>
        <pt x="276" y="600" on="0"/>
        <pt x="246" y="600" on="1"/>
      </contour>
      <contour>
        <pt x="302" y="70" on="1"/>
        <pt x="425" y="70" on="1"/>
        <pt x="425" y="0" on="1"/>
        <pt x="75" y="0" on="1"/>
        <pt x="75" y="70" on="1"/>
        <pt x="222" y="89" on="1"/>
        <pt x="222" y="415" on="1"/>
        <pt x="78" y="415" on="1"/>
        <pt x="78" y="490" on="1"/>
        <pt x="256" y="505" on="1"/>
        <pt x="302" y="510" on="1"/>
      </contour>
    </TTGlyph>
    <TTGlyph name="idieresis" xMin="124" yMin="0" xMax="491" yMax="710">
      <contour>
        <pt x="162" y="580" on="0"/>
        <pt x="124" y="618" on="0"/>
        <pt x="124" y="645" on="1"/>
        <pt x="124" y="672" on="0"/>
        <pt x="162" y="710" on="0"/>
        <pt x="189" y="710" on="1"/>
        <pt x="216" y="710" on="0"/>
        <pt x="254" y="672" on="0"/>
        <pt x="254" y="645" on="1"/>
        <pt x="254" y="618" on="0"/>
        <pt x="216" y="580" on="0"/>
        <pt x="189" y="580" on="1"/>
      </contour>
      <contour>
        <pt x="399" y="580" on="0"/>
        <pt x="361" y="618" on="0"/>
        <pt x="361" y="645" on="1"/>
        <pt x="361" y="672" on="0"/>
        <pt x="399" y="710" on="0"/>
        <pt x="426" y="710" on="1"/>
        <pt x="453" y="710" on="0"/>
        <pt x="491" y="672" on="0"/>
        <pt x="491" y="645" on="1"/>
        <pt x="491" y="618" on="0"/>
        <pt x="453" y="580" on="0"/>
        <pt x="426" y="580" on="1"/>
      </contour>
      <contour>
        <pt x="352" y="70" on="1"/>
        <pt x="475" y="70" on="1"/>
        <pt x="475" y="0" on="1"/>
        <pt x="125" y="0" on="1"/>
        <pt x="125" y="70" on="1"/>
        <pt x="272" y="89" on="1"/>
        <pt x="272" y="415" on="1"/>
        <pt x="128" y="415" on="1"/>
        <pt x="128" y="490" on="1"/>
        <pt x="306" y="505" on="1"/>
        <pt x="352" y="510" on="1"/>
      </contour>
    </TTGlyph>
    <TTGlyph name="j" xMin="20" yMin="-220" xMax="333" yMax="744">
      <contour>
        <pt x="231" y="600" on="0"/>
        <pt x="189" y="642" on="0"/>
        <pt x="189" y="672" on="1"/>
        <pt x="189" y="702" on="0"/>
        <pt x="231" y="744" on="0"/>
        <pt x="261" y="744" on="1"/>
        <pt x="291" y="744" on="0"/>
        <pt x="333" y="702" on="0"/>
        <pt x="333" y="672" on="1"/>
        <pt x="333" y="642" on="0"/>
        <pt x="291" y="600" on="0"/>
        <pt x="261" y="600" on="1"/>
      </contour>
      <contour>
        <pt x="267" y="505" on="1"/>
        <pt x="313" y="510" on="1"/>
        <pt x="313" y="-50" on="1"/>
        <pt x="313" y="-137" on="0"/>
        <pt x="219" y="-220" on="0"/>
        <pt x="133" y="-220" on="1"/>
        <pt x="106" y="-220" on="0"/>
        <pt x="56" y="-207" on="0"/>
        <pt x="24" y="-192" on="0"/>
        <pt x="20" y="-190" on="1"/>
        <pt x="40" y="-125" on="1"/>
        <pt x="43" y="-126" on="0"/>
        <pt x="68" y="-134" on="0"/>
        <pt x="109" y="-142" on="0"/>
        <pt x="133" y="-142" on="1"/>
        <pt x="181" y="-142" on="0"/>
        <pt x="233" y="-100" on="0"/>
        <pt x="233" y="-50" on="1"/>
        <pt x="233" y="415" on="1"/>
        <pt x="79" y="415" on="1"/>
        <pt x="79" y="490" on="1"/>
      </contour>
    </TTGlyph>
    <TTGlyph name="k" xMin="85" yMin="-15" xMax="513" yMax="700">
      <contour>
        <pt x="346" y="204" on="0"/>
        <pt x="439" y="116" on="0"/>
        <pt x="513" y="59" on="1"/>
        <pt x="467" y="-15" on="1"/>
        <pt x="324" y="98" on="0"/>
        <pt x="245" y="242" on="1"/>
        <pt x="165" y="160" on="1"/>
        <pt x="165" y="0" on="1"/>
        <pt x="85" y="0" on="1"/>
        <pt x="85" y="690" on="1"/>
        <pt x="165" y="700" on="1"/>
        <pt x="165" y="264" on="1"/>
        <pt x="391" y="500" on="1"/>
        <pt x="494" y="500" on="1"/>
        <pt x="281" y="280" on="1"/>
      </contour>
    </TTGlyph>
    <TTGlyph name="l" xMin="30" yMin="-10" xMax="430" yMax="680">
      <contour>
        <pt x="430" y="20" on="1"/>
        <pt x="426" y="18" on="0"/>
        <pt x="394" y="3" on="0"/>
        <pt x="344" y="-10" on="0"/>
        <pt x="317" y="-10" on="1"/>
        <pt x="231" y="-10" on="0"/>
        <pt x="137" y="73" on="0"/>
        <pt x="137" y="160" on="1"/>
        <pt x="137" y="590" on="1"/>
        <pt x="30" y="590" on="1"/>
        <pt x="30" y="660" on="1"/>
        <pt x="217" y="680" on="1"/>
        <pt x="217" y="160" on="1"/>
        <pt x="217" y="110" on="0"/>
        <pt x="269" y="68" on="0"/>
        <pt x="317" y="68" on="1"/>
        <pt x="341" y="68" on="0"/>
        <pt x="382" y="76" on="0"/>
        <pt x="407" y="84" on="0"/>
        <pt x="410" y="85" on="1"/>
      </contour>
    </TTGlyph>
    <TTGlyph name="m" xMin="45" yMin="0" xMax="849" yMax="520">
      <contour>
        <pt x="849" y="520" on="0"/>
        <pt x="849" y="322" on="1"/>
        <pt x="849" y="0" on="1"/>
        <pt x="769" y="0" on="1"/>
        <pt x="769" y="322" on="1"/>
        <pt x="769" y="375" on="0"/>
        <pt x="733" y="440" on="0"/>
        <pt x="685" y="440" on="1"/>
        <pt x="645" y="440" on="0"/>
        <pt x="577" y="401" on="0"/>
        <pt x="534" y="355" on="0"/>
        <pt x="525" y="340" on="1"/>
        <pt x="525" y="322" on="1"/>
        <pt x="525" y="70" on="1"/>
        <pt x="587" y="70" on="1"/>
        <pt x="587" y="0" on="1"/>
        <pt x="445" y="0" on="1"/>
        <pt x="445" y="322" on="1"/>
        <pt x="445" y="375" on="0"/>
        <pt x="409" y="440" on="0"/>
        <pt x="361" y="440" on="1"/>
        <pt x="306" y="440" on="0"/>
        <pt x="224" y="372" on="0"/>
        <pt x="201" y="340" on="1"/>
        <pt x="201" y="70" on="1"/>
        <pt x="285" y="70" on="1"/>
        <pt x="285" y="0" on="1"/>
        <pt x="45" y="0" on="1"/>
        <pt x="45" y="70" on="1"/>
        <pt x="119" y="86" on="1"/>
        <pt x="119" y="500" on="1"/>
        <pt x="201" y="510" on="1"/>
        <pt x="201" y="381" on="1"/>
        <pt x="217" y="429" on="0"/>
        <pt x="300" y="520" on="0"/>
        <pt x="378" y="520" on="1"/>
        <pt x="505" y="520" on="0"/>
        <pt x="522" y="372" on="1"/>
        <pt x="536" y="420" on="0"/>
        <pt x="618" y="520" on="0"/>
        <pt x="702" y="520" on="1"/>
      </contour>
    </TTGlyph>
    <TTGlyph name="macron" xMin="115" yMin="610" xMax="475" yMax="670">
      <contour>
        <pt x="115" y="670" on="1"/>
        <pt x="475" y="670" on="1"/>
        <pt x="475" y="610" on="1"/>
        <pt x="115" y="610" on="1"/>
      </contour>
    </TTGlyph>
    <TTGlyph name="n" xMin="45" yMin="0" xMax="584" yMax="520">
      <contour>
        <pt x="584" y="70" on="1"/>
        <pt x="584" y="0" on="1"/>
        <pt x="443" y="0" on="1"/>
        <pt x="443" y="322" on="1"/>
        <pt x="443" y="375" on="0"/>
        <pt x="407" y="440" on="0"/>
        <pt x="359" y="440" on="1"/>
        <pt x="304" y="440" on="0"/>
        <pt x="222" y="372" on="0"/>
        <pt x="199" y="340" on="1"/>
        <pt x="199" y="70" on="1"/>
        <pt x="285" y="70" on="1"/>
        <pt x="285" y="0" on="1"/>
        <pt x="45" y="0" on="1"/>
        <pt x="45" y="70" on="1"/>
        <pt x="117" y="85" on="1"/>
        <pt x="117" y="500" on="1"/>
        <pt x="199" y="510" on="1"/>
        <pt x="199" y="381" on="1"/>
        <pt x="215" y="429" on="0"/>
        <pt x="298" y="520" on="0"/>
        <pt x="376" y="520" on="1"/>
        <pt x="523" y="520" on="0"/>
        <pt x="523" y="322" on="1"/>
        <pt x="523" y="70" on="1"/>
      </contour>
    </TTGlyph>
    <TTGlyph name="nine" xMin="55" yMin="-20" xMax="533" yMax="700">
      <contour>
        <pt x="393" y="700" on="0"/>
        <pt x="533" y="542" on="0"/>
        <pt x="533" y="351" on="1"/>
        <pt x="533" y="262" on="0"/>
        <pt x="487" y="94" on="0"/>
        <pt x="372" y="-20" on="0"/>
        <pt x="277" y="-20" on="1"/>
        <pt x="217" y="-20" on="0"/>
        <pt x="129" y="24" on="0"/>
        <pt x="77" y="75" on="0"/>
        <pt x="77" y="79" on="1"/>
        <pt x="130" y="132" on="1"/>
        <pt x="130" y="130" on="0"/>
        <pt x="175" y="92" on="0"/>
        <pt x="240" y="60" on="0"/>
        <pt x="277" y="60" on="1"/>
        <pt x="337" y="60" on="0"/>
        <pt x="414" y="117" on="0"/>
        <pt x="455" y="251" on="0"/>
        <pt x="457" y="366" on="1"/>
        <pt x="402" y="261" on="0"/>
        <pt x="273" y="261" on="1"/>
        <pt x="215" y="261" on="0"/>
        <pt x="115" y="314" on="0"/>
        <pt x="55" y="409" on="0"/>
        <pt x="55" y="471" on="1"/>
        <pt x="55" y="535" on="0"/>
        <pt x="112" y="639" on="0"/>
        <pt x="216" y="700" on="0"/>
        <pt x="283" y="700" on="1"/>
      </contour>
      <contour>
        <pt x="327" y="341" on="0"/>
        <pt x="426" y="405" on="0"/>
        <pt x="443" y="473" on="1"/>
        <pt x="432" y="544" on="0"/>
        <pt x="347" y="620" on="0"/>
        <pt x="283" y="620" on="1"/>
        <pt x="215" y="620" on="0"/>
        <pt x="135" y="535" on="0"/>
        <pt x="135" y="471" on="1"/>
        <pt x="135" y="412" on="0"/>
        <pt x="216" y="341" on="0"/>
        <pt x="273" y="341" on="1"/>
      </contour>
    </TTGlyph>
    <TTGlyph name="o" xMin="50" yMin="-20" xMax="517" yMax="520">
      <contour>
        <pt x="217" y="-20" on="0"/>
        <pt x="111" y="48" on="0"/>
        <pt x="50" y="170" on="0"/>
        <pt x="50" y="249" on="1"/>
        <pt x="50" y="328" on="0"/>
        <pt x="111" y="451" on="0"/>
        <pt x="218" y="520" on="0"/>
        <pt x="284" y="520" on="1"/>
        <pt x="350" y="520" on="0"/>
        <pt x="456" y="451" on="0"/>
        <pt x="517" y="328" on="0"/>
        <pt x="517" y="249" on="1"/>
        <pt x="517" y="170" on="0"/>
        <pt x="456" y="48" on="0"/>
        <pt x="350" y="-20" on="0"/>
        <pt x="284" y="-20" on="1"/>
      </contour>
      <contour>
        <pt x="327" y="60" on="0"/>
        <pt x="397" y="106" on="0"/>
        <pt x="437" y="192" on="0"/>
        <pt x="437" y="249" on="1"/>
        <pt x="437" y="306" on="0"/>
        <pt x="397" y="393" on="0"/>
        <pt x="327" y="440" on="0"/>
        <pt x="284" y="440" on="1"/>
        <pt x="240" y="440" on="0"/>
        <pt x="170" y="393" on="0"/>
        <pt x="130" y="306" on="0"/>
        <pt x="130" y="249" on="1"/>
        <pt x="130" y="192" on="0"/>
        <pt x="170" y="106" on="0"/>
        <pt x="240" y="60" on="0"/>
        <pt x="284" y="60" on="1"/>
      </contour>
    </TTGlyph>
    <TTGlyph name="ocircumflex" xMin="50" yMin="-20" xMax="517" yMax="772">
      <contour>
        <pt x="285" y="739" on="1"/>
        <pt x="204" y="570" on="1"/>
        <pt x="145" y="607" on="1"/>
        <pt x="239" y="772" on="1"/>
        <pt x="331" y="772" on="1"/>
        <pt x="429" y="604" on="1"/>
        <pt x="366" y="569" on="1"/>
      </contour>
      <contour>
        <pt x="350" y="520" on="0"/>
        <pt x="456" y="451" on="0"/>
        <pt x="517" y="328" on="0"/>
        <pt x="517" y="249" on="1"/>
        <pt x="517" y="170" on="0"/>
        <pt x="456" y="48" on="0"/>
        <pt x="350" y="-20" on="0"/>
        <pt x="284" y="-20" on="1"/>
        <pt x="217" y="-20" on="0"/>
        <pt x="111" y="48" on="0"/>
        <pt x="50" y="170" on="0"/>
        <pt x="50" y="249" on="1"/>
        <pt x="50" y="328" on="0"/>
        <pt x="111" y="451" on="0"/>
        <pt x="218" y="520" on="0"/>
        <pt x="284" y="520" on="1"/>
      </contour>
      <contour>
        <pt x="327" y="60" on="0"/>
        <pt x="397" y="106" on="0"/>
        <pt x="437" y="192" on="0"/>
        <pt x="437" y="249" on="1"/>
        <pt x="437" y="306" on="0"/>
        <pt x="397" y="393" on="0"/>
        <pt x="327" y="440" on="0"/>
        <pt x="284" y="440" on="1"/>
        <pt x="240" y="440" on="0"/>
        <pt x="170" y="393" on="0"/>
        <pt x="130" y="306" on="0"/>
        <pt x="130" y="249" on="1"/>
        <pt x="130" y="192" on="0"/>
        <pt x="170" y="106" on="0"/>
        <pt x="240" y="60" on="0"/>
        <pt x="284" y="60" on="1"/>
      </contour>
    </TTGlyph>
    <TTGlyph name="oe" xMin="50" yMin="-20" xMax="874" yMax="520">
      <contour>
        <pt x="874" y="239" on="1"/>
        <pt x="517" y="239" on="1"/>
        <pt x="521" y="157" on="0"/>
        <pt x="625" y="60" on="0"/>
        <pt x="706" y="60" on="1"/>
        <pt x="742" y="60" on="0"/>
        <pt x="817" y="71" on="0"/>
        <pt x="817" y="72" on="1"/>
        <pt x="835" y="0" on="1"/>
        <pt x="831" y="-2" on="0"/>
        <pt x="798" y="-11" on="0"/>
        <pt x="740" y="-20" on="0"/>
        <pt x="706" y="-20" on="1"/>
        <pt x="630" y="-20" on="0"/>
        <pt x="512" y="39" on="0"/>
        <pt x="478" y="93" on="1"/>
        <pt x="448" y="40" on="0"/>
        <pt x="346" y="-20" on="0"/>
        <pt x="284" y="-20" on="1"/>
        <pt x="217" y="-20" on="0"/>
        <pt x="111" y="48" on="0"/>
        <pt x="50" y="170" on="0"/>
        <pt x="50" y="249" on="1"/>
        <pt x="50" y="328" on="0"/>
        <pt x="111" y="451" on="0"/>
        <pt x="218" y="520" on="0"/>
        <pt x="284" y="520" on="1"/>
        <pt x="345" y="520" on="0"/>
        <pt x="445" y="461" on="0"/>
        <pt x="476" y="409" on="1"/>
        <pt x="506" y="461" on="0"/>
        <pt x="605" y="520" on="0"/>
        <pt x="666" y="520" on="1"/>
        <pt x="763" y="520" on="0"/>
        <pt x="874" y="401" on="0"/>
        <pt x="874" y="289" on="1"/>
      </contour>
      <contour>
        <pt x="610" y="443" on="0"/>
        <pt x="532" y="366" on="0"/>
        <pt x="521" y="300" on="1"/>
        <pt x="786" y="311" on="1"/>
        <pt x="781" y="443" on="0"/>
        <pt x="666" y="443" on="1"/>
      </contour>
      <contour>
        <pt x="327" y="60" on="0"/>
        <pt x="397" y="106" on="0"/>
        <pt x="437" y="192" on="0"/>
        <pt x="437" y="249" on="1"/>
        <pt x="437" y="306" on="0"/>
        <pt x="397" y="393" on="0"/>
        <pt x="327" y="440" on="0"/>
        <pt x="284" y="440" on="1"/>
        <pt x="240" y="440" on="0"/>
        <pt x="170" y="393" on="0"/>
        <pt x="130" y="306" on="0"/>
        <pt x="130" y="249" on="1"/>
        <pt x="130" y="192" on="0"/>
        <pt x="170" y="106" on="0"/>
        <pt x="240" y="60" on="0"/>
        <pt x="284" y="60" on="1"/>
      </contour>
    </TTGlyph>
    <TTGlyph name="ogonek" xMin="131" yMin="-202" xMax="309" yMax="11">
      <contour>
        <pt x="279" y="-13" on="0"/>
        <pt x="235" y="-59" on="0"/>
        <pt x="227" y="-70" on="1"/>
        <pt x="206" y="-91" on="0"/>
        <pt x="206" y="-112" on="1"/>
        <pt x="206" y="-127" on="0"/>
        <pt x="225" y="-146" on="0"/>
        <pt x="241" y="-146" on="1"/>
        <pt x="254" y="-146" on="0"/>
        <pt x="271" y="-140" on="1"/>
        <pt x="286" y="-134" on="0"/>
        <pt x="307" y="-120" on="0"/>
        <pt x="309" y="-119" on="1"/>
        <pt x="309" y="-174" on="1"/>
        <pt x="278" y="-202" on="0"/>
        <pt x="225" y="-202" on="1"/>
        <pt x="180" y="-202" on="0"/>
        <pt x="131" y="-160" on="0"/>
        <pt x="131" y="-128" on="1"/>
        <pt x="131" y="-68" on="0"/>
        <pt x="227" y="11" on="1"/>
        <pt x="307" y="11" on="1"/>
      </contour>
    </TTGlyph>
    <TTGlyph name="one" xMin="65" yMin="0" xMax="461" yMax="700">
      <contour>
        <pt x="461" y="80" on="1"/>
        <pt x="461" y="0" on="1"/>
        <pt x="81" y="0" on="1"/>
        <pt x="81" y="80" on="1"/>
        <pt x="238" y="80" on="1"/>
        <pt x="238" y="579" on="1"/>
        <pt x="173" y="538" on="0"/>
        <pt x="79" y="514" on="1"/>
        <pt x="65" y="590" on="1"/>
        <pt x="128" y="609" on="0"/>
        <pt x="241" y="658" on="0"/>
        <pt x="309" y="695" on="0"/>
        <pt x="318" y="700" on="1"/>
        <pt x="318" y="80" on="1"/>
      </contour>
    </TTGlyph>
    <TTGlyph name="p" xMin="30" yMin="-200" xMax="561" yMax="520">
      <contour>
        <pt x="456" y="520" on="0"/>
        <pt x="561" y="387" on="0"/>
        <pt x="561" y="279" on="1"/>
        <pt x="561" y="197" on="0"/>
        <pt x="508" y="61" on="0"/>
        <pt x="404" y="-20" on="0"/>
        <pt x="332" y="-20" on="1"/>
        <pt x="282" y="-20" on="0"/>
        <pt x="206" y="17" on="0"/>
        <pt x="184" y="55" on="1"/>
        <pt x="184" y="-130" on="1"/>
        <pt x="280" y="-130" on="1"/>
        <pt x="280" y="-200" on="1"/>
        <pt x="30" y="-200" on="1"/>
        <pt x="30" y="-130" on="1"/>
        <pt x="104" y="-114" on="1"/>
        <pt x="104" y="500" on="1"/>
        <pt x="184" y="500" on="1"/>
        <pt x="184" y="355" on="1"/>
        <pt x="200" y="424" on="0"/>
        <pt x="284" y="520" on="0"/>
        <pt x="362" y="520" on="1"/>
      </contour>
      <contour>
        <pt x="402" y="60" on="0"/>
        <pt x="481" y="184" on="0"/>
        <pt x="481" y="279" on="1"/>
        <pt x="481" y="353" on="0"/>
        <pt x="413" y="440" on="0"/>
        <pt x="352" y="440" on="1"/>
        <pt x="304" y="440" on="0"/>
        <pt x="227" y="387" on="0"/>
        <pt x="184" y="299" on="0"/>
        <pt x="184" y="249" on="1"/>
        <pt x="184" y="186" on="1"/>
        <pt x="184" y="130" on="0"/>
        <pt x="258" y="60" on="0"/>
        <pt x="322" y="60" on="1"/>
      </contour>
    </TTGlyph>
    <TTGlyph name="parenleft" xMin="150" yMin="-183" xMax="398" yMax="805">
      <contour>
        <pt x="339" y="-175" on="1"/>
        <pt x="339" y="-183" on="0"/>
        <pt x="234" y="-32" on="0"/>
        <pt x="150" y="184" on="0"/>
        <pt x="150" y="311" on="1"/>
        <pt x="150" y="438" on="0"/>
        <pt x="234" y="654" on="0"/>
        <pt x="339" y="805" on="0"/>
        <pt x="339" y="797" on="1"/>
        <pt x="398" y="746" on="1"/>
        <pt x="398" y="753" on="0"/>
        <pt x="305" y="620" on="0"/>
        <pt x="230" y="427" on="0"/>
        <pt x="230" y="311" on="1"/>
        <pt x="230" y="195" on="0"/>
        <pt x="305" y="2" on="0"/>
        <pt x="398" y="-131" on="0"/>
        <pt x="398" y="-124" on="1"/>
      </contour>
    </TTGlyph>
    <TTGlyph name="parenright" xMin="75" yMin="-183" xMax="323" yMax="805">
      <contour>
        <pt x="75" y="-131" on="0"/>
        <pt x="168" y="2" on="0"/>
        <pt x="243" y="195" on="0"/>
        <pt x="243" y="311" on="1"/>
        <pt x="243" y="427" on="0"/>
        <pt x="168" y="620" on="0"/>
        <pt x="75" y="753" on="0"/>
        <pt x="75" y="746" on="1"/>
        <pt x="134" y="797" on="1"/>
        <pt x="134" y="805" on="0"/>
        <pt x="239" y="654" on="0"/>
        <pt x="323" y="438" on="0"/>
        <pt x="323" y="311" on="1"/>
        <pt x="323" y="184" on="0"/>
        <pt x="239" y="-32" on="0"/>
        <pt x="134" y="-183" on="0"/>
        <pt x="134" y="-175" on="1"/>
        <pt x="75" y="-124" on="1"/>
      </contour>
    </TTGlyph>
    <TTGlyph name="period" xMin="100" yMin="-20" xMax="244" yMax="124">
      <contour>
        <pt x="142" y="-20" on="0"/>
        <pt x="100" y="22" on="0"/>
        <pt x="100" y="52" on="1"/>
        <pt x="100" y="82" on="0"/>
        <pt x="142" y="124" on="0"/>
        <pt x="172" y="124" on="1"/>
        <pt x="202" y="124" on="0"/>
        <pt x="244" y="82" on="0"/>
        <pt x="244" y="52" on="1"/>
        <pt x="244" y="22" on="0"/>
        <pt x="202" y="-20" on="0"/>
        <pt x="172" y="-20" on="1"/>
      </contour>
    </TTGlyph>
    <TTGlyph name="q" xMin="50" yMin="-200" xMax="507" yMax="520">
      <contour>
        <pt x="507" y="500" on="1"/>
        <pt x="507" y="-200" on="1"/>
        <pt x="427" y="-200" on="1"/>
        <pt x="427" y="145" on="1"/>
        <pt x="411" y="76" on="0"/>
        <pt x="327" y="-20" on="0"/>
        <pt x="249" y="-20" on="1"/>
        <pt x="155" y="-20" on="0"/>
        <pt x="50" y="113" on="0"/>
        <pt x="50" y="221" on="1"/>
        <pt x="50" y="303" on="0"/>
        <pt x="103" y="439" on="0"/>
        <pt x="207" y="520" on="0"/>
        <pt x="279" y="520" on="1"/>
        <pt x="331" y="520" on="0"/>
        <pt x="409" y="479" on="0"/>
        <pt x="431" y="438" on="1"/>
        <pt x="447" y="510" on="1"/>
      </contour>
      <contour>
        <pt x="307" y="60" on="0"/>
        <pt x="384" y="113" on="0"/>
        <pt x="427" y="201" on="0"/>
        <pt x="427" y="251" on="1"/>
        <pt x="427" y="314" on="1"/>
        <pt x="427" y="370" on="0"/>
        <pt x="353" y="440" on="0"/>
        <pt x="289" y="440" on="1"/>
        <pt x="209" y="440" on="0"/>
        <pt x="130" y="316" on="0"/>
        <pt x="130" y="221" on="1"/>
        <pt x="130" y="147" on="0"/>
        <pt x="198" y="60" on="0"/>
        <pt x="259" y="60" on="1"/>
      </contour>
    </TTGlyph>
    <TTGlyph name="question" xMin="115" yMin="-20" xMax="490" yMax="700">
      <contour>
        <pt x="334" y="700" on="0"/>
        <pt x="436" y="646" on="0"/>
        <pt x="490" y="553" on="0"/>
        <pt x="490" y="495" on="1"/>
        <pt x="490" y="440" on="0"/>
        <pt x="439" y="353" on="0"/>
        <pt x="350" y="305" on="0"/>
        <pt x="295" y="306" on="1"/>
        <pt x="289" y="221" on="1"/>
        <pt x="209" y="221" on="1"/>
        <pt x="199" y="349" on="1"/>
        <pt x="276" y="357" on="1"/>
        <pt x="337" y="367" on="0"/>
        <pt x="410" y="436" on="0"/>
        <pt x="410" y="495" on="1"/>
        <pt x="410" y="548" on="0"/>
        <pt x="335" y="621" on="0"/>
        <pt x="264" y="621" on="1"/>
        <pt x="236" y="621" on="0"/>
        <pt x="177" y="611" on="0"/>
        <pt x="137" y="601" on="0"/>
        <pt x="132" y="599" on="1"/>
        <pt x="115" y="672" on="1"/>
        <pt x="120" y="674" on="0"/>
        <pt x="160" y="688" on="0"/>
        <pt x="226" y="700" on="0"/>
        <pt x="264" y="700" on="1"/>
      </contour>
      <contour>
        <pt x="268" y="124" on="0"/>
        <pt x="310" y="82" on="0"/>
        <pt x="310" y="52" on="1"/>
        <pt x="310" y="22" on="0"/>
        <pt x="268" y="-20" on="0"/>
        <pt x="238" y="-20" on="1"/>
        <pt x="208" y="-20" on="0"/>
        <pt x="166" y="22" on="0"/>
        <pt x="166" y="52" on="1"/>
        <pt x="166" y="82" on="0"/>
        <pt x="208" y="124" on="0"/>
        <pt x="238" y="124" on="1"/>
      </contour>
    </TTGlyph>
    <TTGlyph name="quotedbl" xMin="170" yMin="470" xMax="420" yMax="700">
      <contour>
        <pt x="250" y="470" on="1"/>
        <pt x="170" y="470" on="1"/>
        <pt x="170" y="700" on="1"/>
        <pt x="250" y="700" on="1"/>
      </contour>
      <contour>
        <pt x="420" y="470" on="1"/>
        <pt x="340" y="470" on="1"/>
        <pt x="340" y="700" on="1"/>
        <pt x="420" y="700" on="1"/>
      </contour>
    </TTGlyph>
    <TTGlyph name="quotedblbase" xMin="95" yMin="-167" xMax="245" yMax="124">
      <contour>
        <pt x="205" y="124" on="0"/>
        <pt x="245" y="78" on="0"/>
        <pt x="245" y="34" on="1"/>
        <pt x="245" y="-22" on="0"/>
        <pt x="192" y="-110" on="0"/>
        <pt x="126" y="-167" on="0"/>
        <pt x="126" y="-164" on="1"/>
        <pt x="95" y="-120" on="1"/>
        <pt x="95" y="-121" on="0"/>
        <pt x="126" y="-95" on="0"/>
        <pt x="158" y="-50" on="0"/>
        <pt x="167" y="-20" on="1"/>
        <pt x="143" y="-16" on="0"/>
        <pt x="101" y="21" on="0"/>
        <pt x="101" y="52" on="1"/>
        <pt x="101" y="82" on="0"/>
        <pt x="143" y="124" on="0"/>
        <pt x="173" y="124" on="1"/>
      </contour>
    </TTGlyph>
    <TTGlyph name="quotedblleft" xMin="210" yMin="433" xMax="590" yMax="724">
      <contour>
        <pt x="360" y="678" on="0"/>
        <pt x="329" y="652" on="0"/>
        <pt x="297" y="607" on="0"/>
        <pt x="288" y="577" on="1"/>
        <pt x="312" y="573" on="0"/>
        <pt x="354" y="536" on="0"/>
        <pt x="354" y="505" on="1"/>
        <pt x="354" y="475" on="0"/>
        <pt x="312" y="433" on="0"/>
        <pt x="282" y="433" on="1"/>
        <pt x="250" y="433" on="0"/>
        <pt x="210" y="479" on="0"/>
        <pt x="210" y="523" on="1"/>
        <pt x="210" y="579" on="0"/>
        <pt x="263" y="667" on="0"/>
        <pt x="329" y="724" on="0"/>
        <pt x="329" y="721" on="1"/>
        <pt x="360" y="677" on="1"/>
      </contour>
      <contour>
        <pt x="542" y="573" on="0"/>
        <pt x="584" y="536" on="0"/>
        <pt x="584" y="505" on="1"/>
        <pt x="584" y="475" on="0"/>
        <pt x="542" y="433" on="0"/>
        <pt x="512" y="433" on="1"/>
        <pt x="480" y="433" on="0"/>
        <pt x="440" y="479" on="0"/>
        <pt x="440" y="523" on="1"/>
        <pt x="440" y="579" on="0"/>
        <pt x="493" y="667" on="0"/>
        <pt x="559" y="724" on="0"/>
        <pt x="559" y="721" on="1"/>
        <pt x="590" y="677" on="1"/>
        <pt x="590" y="678" on="0"/>
        <pt x="559" y="652" on="0"/>
        <pt x="527" y="607" on="0"/>
        <pt x="518" y="577" on="1"/>
      </contour>
    </TTGlyph>
    <TTGlyph name="quotedblright" xMin="0" yMin="406" xMax="380" yMax="694">
      <component glyphName="quotedblbase" x="135" y="570" flags="0x4"/>
      <component glyphName="quotedblbase" x="-95" y="570" flags="0x4"/>
    </TTGlyph>
    <TTGlyph name="quoteleft" xMin="345" yMin="433" xMax="495" yMax="724">
      <contour>
        <pt x="447" y="573" on="0"/>
        <pt x="489" y="536" on="0"/>
        <pt x="489" y="505" on="1"/>
        <pt x="489" y="475" on="0"/>
        <pt x="447" y="433" on="0"/>
        <pt x="417" y="433" on="1"/>
        <pt x="385" y="433" on="0"/>
        <pt x="345" y="479" on="0"/>
        <pt x="345" y="523" on="1"/>
        <pt x="345" y="579" on="0"/>
        <pt x="398" y="667" on="0"/>
        <pt x="464" y="724" on="0"/>
        <pt x="464" y="721" on="1"/>
        <pt x="495" y="677" on="1"/>
        <pt x="495" y="678" on="0"/>
        <pt x="464" y="652" on="0"/>
        <pt x="432" y="607" on="0"/>
        <pt x="423" y="577" on="1"/>
      </contour>
    </TTGlyph>
    <TTGlyph name="quoteright" xMin="105" yMin="406" xMax="255" yMax="694">
      <component glyphName="quotedblbase" x="10" y="570" flags="0x4"/>
    </TTGlyph>
    <TTGlyph name="quotesinglbase" xMin="95" yMin="-164" xMax="245" yMax="124">
      <component glyphName="comma" x="-10" y="0" flags="0x0"/>
    </TTGlyph>
    <TTGlyph name="quotesingle" xMin="105" yMin="403" xMax="255" yMax="694">
      <contour>
        <pt x="215" y="694" on="0"/>
        <pt x="255" y="648" on="0"/>
        <pt x="255" y="604" on="1"/>
        <pt x="255" y="548" on="0"/>
        <pt x="202" y="460" on="0"/>
        <pt x="136" y="403" on="0"/>
        <pt x="136" y="406" on="1"/>
        <pt x="105" y="450" on="1"/>
        <pt x="105" y="449" on="0"/>
        <pt x="136" y="475" on="0"/>
        <pt x="168" y="520" on="0"/>
        <pt x="177" y="550" on="1"/>
        <pt x="153" y="554" on="0"/>
        <pt x="111" y="591" on="0"/>
        <pt x="111" y="622" on="1"/>
        <pt x="111" y="652" on="0"/>
        <pt x="153" y="694" on="0"/>
        <pt x="183" y="694" on="1"/>
      </contour>
    </TTGlyph>
    <TTGlyph name="r" xMin="50" yMin="0" xMax="524" yMax="520">
      <contour>
        <pt x="440" y="520" on="0"/>
        <pt x="511" y="438" on="0"/>
        <pt x="524" y="350" on="1"/>
        <pt x="451" y="323" on="1"/>
        <pt x="433" y="387" on="0"/>
        <pt x="398" y="440" on="0"/>
        <pt x="361" y="440" on="1"/>
        <pt x="317" y="440" on="0"/>
        <pt x="250" y="358" on="0"/>
        <pt x="234" y="321" on="1"/>
        <pt x="234" y="70" on="1"/>
        <pt x="376" y="70" on="1"/>
        <pt x="376" y="0" on="1"/>
        <pt x="56" y="0" on="1"/>
        <pt x="56" y="70" on="1"/>
        <pt x="154" y="87" on="1"/>
        <pt x="154" y="420" on="1"/>
        <pt x="50" y="420" on="1"/>
        <pt x="50" y="490" on="1"/>
        <pt x="234" y="510" on="1"/>
        <pt x="234" y="363" on="1"/>
        <pt x="250" y="419" on="0"/>
        <pt x="319" y="520" on="0"/>
        <pt x="381" y="520" on="1"/>
      </contour>
    </TTGlyph>
    <TTGlyph name="ring" xMin="170" yMin="561" xMax="420" yMax="812">
      <contour>
        <pt x="243" y="561" on="0"/>
        <pt x="170" y="635" on="0"/>
        <pt x="170" y="687" on="1"/>
        <pt x="170" y="739" on="0"/>
        <pt x="243" y="812" on="0"/>
        <pt x="295" y="812" on="1"/>
        <pt x="347" y="812" on="0"/>
        <pt x="420" y="739" on="0"/>
        <pt x="420" y="687" on="1"/>
        <pt x="420" y="635" on="0"/>
        <pt x="347" y="561" on="0"/>
        <pt x="295" y="561" on="1"/>
      </contour>
      <contour>
        <pt x="324" y="616" on="0"/>
        <pt x="364" y="656" on="0"/>
        <pt x="364" y="687" on="1"/>
        <pt x="364" y="717" on="0"/>
        <pt x="324" y="757" on="0"/>
        <pt x="295" y="757" on="1"/>
        <pt x="266" y="757" on="0"/>
        <pt x="226" y="717" on="0"/>
        <pt x="226" y="687" on="1"/>
        <pt x="226" y="656" on="0"/>
        <pt x="266" y="616" on="0"/>
        <pt x="295" y="616" on="1"/>
      </contour>
    </TTGlyph>
    <TTGlyph name="s" xMin="55" yMin="-20" xMax="435" yMax="520">
      <contour>
        <pt x="194" y="-20" on="0"/>
        <pt x="112" y="3" on="0"/>
        <pt x="61" y="30" on="0"/>
        <pt x="61" y="32" on="1"/>
        <pt x="81" y="98" on="1"/>
        <pt x="81" y="97" on="0"/>
        <pt x="133" y="75" on="0"/>
        <pt x="206" y="57" on="0"/>
        <pt x="246" y="57" on="1"/>
        <pt x="295" y="57" on="0"/>
        <pt x="355" y="93" on="0"/>
        <pt x="355" y="134" on="1"/>
        <pt x="355" y="166" on="0"/>
        <pt x="305" y="199" on="0"/>
        <pt x="255" y="210" on="1"/>
        <pt x="193" y="224" on="0"/>
        <pt x="116" y="250" on="0"/>
        <pt x="55" y="308" on="0"/>
        <pt x="55" y="358" on="1"/>
        <pt x="55" y="431" on="0"/>
        <pt x="163" y="520" on="0"/>
        <pt x="249" y="520" on="1"/>
        <pt x="285" y="520" on="0"/>
        <pt x="347" y="507" on="0"/>
        <pt x="384" y="492" on="0"/>
        <pt x="389" y="490" on="1"/>
        <pt x="371" y="417" on="1"/>
        <pt x="366" y="419" on="0"/>
        <pt x="329" y="430" on="0"/>
        <pt x="275" y="440" on="0"/>
        <pt x="249" y="440" on="1"/>
        <pt x="199" y="440" on="0"/>
        <pt x="135" y="404" on="0"/>
        <pt x="135" y="368" on="1"/>
        <pt x="135" y="332" on="0"/>
        <pt x="201" y="301" on="0"/>
        <pt x="261" y="288" on="1"/>
        <pt x="317" y="276" on="0"/>
        <pt x="386" y="249" on="0"/>
        <pt x="435" y="188" on="0"/>
        <pt x="435" y="134" on="1"/>
        <pt x="435" y="84" on="0"/>
        <pt x="381" y="14" on="0"/>
        <pt x="295" y="-20" on="0"/>
        <pt x="246" y="-20" on="1"/>
      </contour>
    </TTGlyph>
    <TTGlyph name="semicolon" xMin="80" yMin="-164" xMax="245" yMax="492">
      <component glyphName="period" x="-20" y="368" flags="0x4"/>
      <component glyphName="comma" x="-10" y="0" flags="0x0"/>
    </TTGlyph>
    <TTGlyph name="seven" xMin="75" yMin="0" xMax="516" yMax="680">
      <contour>
        <pt x="506" y="680" on="1"/>
        <pt x="516" y="600" on="1"/>
        <pt x="197" y="0" on="1"/>
        <pt x="108" y="0" on="1"/>
        <pt x="429" y="600" on="1"/>
        <pt x="75" y="600" on="1"/>
        <pt x="75" y="680" on="1"/>
      </contour>
    </TTGlyph>
    <TTGlyph name="six" xMin="55" yMin="-20" xMax="533" yMax="700">
      <contour>
        <pt x="376" y="429" on="0"/>
        <pt x="475" y="376" on="0"/>
        <pt x="533" y="276" on="0"/>
        <pt x="533" y="209" on="1"/>
        <pt x="533" y="145" on="0"/>
        <pt x="478" y="40" on="0"/>
        <pt x="377" y="-20" on="0"/>
        <pt x="310" y="-20" on="1"/>
        <pt x="244" y="-20" on="0"/>
        <pt x="130" y="43" on="0"/>
        <pt x="55" y="199" on="0"/>
        <pt x="55" y="329" on="1"/>
        <pt x="55" y="415" on="0"/>
        <pt x="112" y="585" on="0"/>
        <pt x="241" y="700" on="0"/>
        <pt x="341" y="700" on="1"/>
        <pt x="383" y="700" on="0"/>
        <pt x="445" y="682" on="0"/>
        <pt x="482" y="661" on="0"/>
        <pt x="482" y="660" on="1"/>
        <pt x="465" y="587" on="1"/>
        <pt x="460" y="590" on="0"/>
        <pt x="424" y="605" on="0"/>
        <pt x="369" y="620" on="0"/>
        <pt x="341" y="620" on="1"/>
        <pt x="251" y="620" on="0"/>
        <pt x="134" y="463" on="0"/>
        <pt x="131" y="285" on="1"/>
        <pt x="148" y="343" on="0"/>
        <pt x="247" y="429" on="0"/>
        <pt x="315" y="429" on="1"/>
      </contour>
      <contour>
        <pt x="378" y="60" on="0"/>
        <pt x="453" y="145" on="0"/>
        <pt x="453" y="209" on="1"/>
        <pt x="453" y="275" on="0"/>
        <pt x="376" y="349" on="0"/>
        <pt x="315" y="349" on="1"/>
        <pt x="261" y="349" on="0"/>
        <pt x="167" y="271" on="0"/>
        <pt x="148" y="203" on="1"/>
        <pt x="182" y="60" on="0"/>
        <pt x="310" y="60" on="1"/>
      </contour>
    </TTGlyph>
    <TTGlyph name="slash" xMin="113" yMin="-84" xMax="477" yMax="745">
      <contour>
        <pt x="408" y="745" on="1"/>
        <pt x="477" y="722" on="1"/>
        <pt x="180" y="-84" on="1"/>
        <pt x="113" y="-59" on="1"/>
      </contour>
    </TTGlyph>
    <TTGlyph name="t" xMin="35" yMin="-10" xMax="427" yMax="690">
      <contour>
        <pt x="427" y="21" on="1"/>
        <pt x="423" y="19" on="0"/>
        <pt x="391" y="4" on="0"/>
        <pt x="341" y="-10" on="0"/>
        <pt x="314" y="-10" on="1"/>
        <pt x="234" y="-10" on="0"/>
        <pt x="134" y="74" on="0"/>
        <pt x="134" y="160" on="1"/>
        <pt x="144" y="419" on="1"/>
        <pt x="35" y="419" on="1"/>
        <pt x="35" y="489" on="1"/>
        <pt x="147" y="506" on="1"/>
        <pt x="154" y="680" on="1"/>
        <pt x="239" y="690" on="1"/>
        <pt x="239" y="625" on="0"/>
        <pt x="223" y="536" on="0"/>
        <pt x="204" y="485" on="0"/>
        <pt x="204" y="489" on="1"/>
        <pt x="407" y="489" on="1"/>
        <pt x="407" y="419" on="1"/>
        <pt x="226" y="419" on="1"/>
        <pt x="214" y="160" on="1"/>
        <pt x="214" y="112" on="0"/>
        <pt x="271" y="69" on="0"/>
        <pt x="314" y="69" on="1"/>
        <pt x="338" y="69" on="0"/>
        <pt x="379" y="77" on="0"/>
        <pt x="404" y="85" on="0"/>
        <pt x="407" y="86" on="1"/>
      </contour>
    </TTGlyph>
    <TTGlyph name="three" xMin="67" yMin="-20" xMax="523" yMax="700">
      <contour>
        <pt x="455" y="341" on="0"/>
        <pt x="523" y="254" on="0"/>
        <pt x="523" y="189" on="1"/>
        <pt x="523" y="126" on="0"/>
        <pt x="468" y="31" on="0"/>
        <pt x="371" y="-20" on="0"/>
        <pt x="310" y="-20" on="1"/>
        <pt x="228" y="-20" on="0"/>
        <pt x="120" y="42" on="0"/>
        <pt x="67" y="112" on="0"/>
        <pt x="67" y="119" on="1"/>
        <pt x="128" y="162" on="1"/>
        <pt x="128" y="159" on="0"/>
        <pt x="179" y="105" on="0"/>
        <pt x="260" y="60" on="0"/>
        <pt x="310" y="60" on="1"/>
        <pt x="370" y="60" on="0"/>
        <pt x="443" y="128" on="0"/>
        <pt x="443" y="189" on="1"/>
        <pt x="443" y="250" on="0"/>
        <pt x="353" y="319" on="0"/>
        <pt x="275" y="319" on="1"/>
        <pt x="218" y="319" on="1"/>
        <pt x="218" y="399" on="1"/>
        <pt x="275" y="399" on="1"/>
        <pt x="337" y="399" on="0"/>
        <pt x="411" y="460" on="0"/>
        <pt x="411" y="510" on="1"/>
        <pt x="411" y="560" on="0"/>
        <pt x="345" y="621" on="0"/>
        <pt x="285" y="621" on="1"/>
        <pt x="253" y="621" on="0"/>
        <pt x="185" y="606" on="0"/>
        <pt x="139" y="590" on="0"/>
        <pt x="133" y="587" on="1"/>
        <pt x="116" y="661" on="1"/>
        <pt x="116" y="662" on="0"/>
        <pt x="166" y="683" on="0"/>
        <pt x="241" y="700" on="0"/>
        <pt x="285" y="700" on="1"/>
        <pt x="347" y="700" on="0"/>
        <pt x="440" y="652" on="0"/>
        <pt x="491" y="565" on="0"/>
        <pt x="491" y="510" on="1"/>
        <pt x="491" y="457" on="0"/>
        <pt x="440" y="382" on="0"/>
        <pt x="394" y="362" on="1"/>
      </contour>
    </TTGlyph>
    <TTGlyph name="tilde" xMin="133" yMin="613" xMax="450" yMax="735">
      <contour>
        <pt x="450" y="703" on="1"/>
        <pt x="450" y="698" on="0"/>
        <pt x="428" y="653" on="0"/>
        <pt x="381" y="613" on="0"/>
        <pt x="343" y="613" on="1"/>
        <pt x="320" y="613" on="0"/>
        <pt x="290" y="632" on="0"/>
        <pt x="274" y="650" on="1"/>
        <pt x="262" y="663" on="0"/>
        <pt x="245" y="675" on="0"/>
        <pt x="234" y="675" on="1"/>
        <pt x="217" y="675" on="0"/>
        <pt x="191" y="650" on="0"/>
        <pt x="178" y="623" on="0"/>
        <pt x="177" y="619" on="1"/>
        <pt x="133" y="637" on="1"/>
        <pt x="133" y="643" on="0"/>
        <pt x="153" y="691" on="0"/>
        <pt x="199" y="735" on="0"/>
        <pt x="237" y="735" on="1"/>
        <pt x="266" y="735" on="0"/>
        <pt x="301" y="714" on="0"/>
        <pt x="317" y="696" on="1"/>
        <pt x="328" y="684" on="0"/>
        <pt x="343" y="673" on="0"/>
        <pt x="353" y="673" on="1"/>
        <pt x="369" y="673" on="0"/>
        <pt x="391" y="695" on="0"/>
        <pt x="403" y="718" on="0"/>
        <pt x="404" y="722" on="1"/>
      </contour>
    </TTGlyph>
    <TTGlyph name="two" xMin="75" yMin="0" xMax="505" yMax="700">
      <contour>
        <pt x="505" y="80" on="1"/>
        <pt x="505" y="0" on="1"/>
        <pt x="75" y="0" on="1"/>
        <pt x="75" y="90" on="1"/>
        <pt x="75" y="140" on="0"/>
        <pt x="120" y="214" on="0"/>
        <pt x="185" y="265" on="0"/>
        <pt x="240" y="299" on="1"/>
        <pt x="294" y="332" on="0"/>
        <pt x="357" y="381" on="0"/>
        <pt x="401" y="452" on="0"/>
        <pt x="401" y="500" on="1"/>
        <pt x="401" y="557" on="0"/>
        <pt x="336" y="621" on="0"/>
        <pt x="275" y="621" on="1"/>
        <pt x="238" y="621" on="0"/>
        <pt x="166" y="606" on="0"/>
        <pt x="119" y="590" on="0"/>
        <pt x="113" y="587" on="1"/>
        <pt x="96" y="661" on="1"/>
        <pt x="96" y="662" on="0"/>
        <pt x="148" y="683" on="0"/>
        <pt x="228" y="700" on="0"/>
        <pt x="275" y="700" on="1"/>
        <pt x="369" y="700" on="0"/>
        <pt x="481" y="591" on="0"/>
        <pt x="481" y="500" on="1"/>
        <pt x="481" y="438" on="0"/>
        <pt x="425" y="344" on="0"/>
        <pt x="346" y="280" on="0"/>
        <pt x="285" y="242" on="1"/>
        <pt x="239" y="213" on="0"/>
        <pt x="189" y="175" on="0"/>
        <pt x="155" y="128" on="0"/>
        <pt x="155" y="100" on="1"/>
        <pt x="155" y="80" on="1"/>
      </contour>
    </TTGlyph>
    <TTGlyph name="u" xMin="81" yMin="-20" xMax="495" yMax="500">
      <contour>
        <pt x="495" y="500" on="1"/>
        <pt x="495" y="0" on="1"/>
        <pt x="415" y="0" on="1"/>
        <pt x="415" y="116" on="1"/>
        <pt x="400" y="67" on="0"/>
        <pt x="319" y="-20" on="0"/>
        <pt x="238" y="-20" on="1"/>
        <pt x="162" y="-20" on="0"/>
        <pt x="81" y="81" on="0"/>
        <pt x="81" y="178" on="1"/>
        <pt x="81" y="500" on="1"/>
        <pt x="161" y="500" on="1"/>
        <pt x="161" y="178" on="1"/>
        <pt x="161" y="116" on="0"/>
        <pt x="204" y="60" on="0"/>
        <pt x="255" y="60" on="1"/>
        <pt x="316" y="60" on="0"/>
        <pt x="395" y="128" on="0"/>
        <pt x="415" y="160" on="1"/>
        <pt x="415" y="500" on="1"/>
      </contour>
    </TTGlyph>
    <TTGlyph name="ucircumflex" xMin="81" yMin="-20" xMax="495" yMax="772">
      <component glyphName="u" x="0" y="0" flags="0x0"/>
      <component glyphName="circumflex" x="-2" y="-8" flags="0x4"/>
    </TTGlyph>
    <TTGlyph name="udieresis" xMin="81" yMin="-20" xMax="495" yMax="710">
      <component glyphName="u" x="0" y="0" flags="0x0"/>
      <component glyphName="dieresis" x="-6" y="-8" flags="0x4"/>
    </TTGlyph>
    <TTGlyph name="ugrave" xMin="81" yMin="-20" xMax="495" yMax="772">
      <contour>
        <pt x="319" y="580" on="1"/>
        <pt x="287" y="570" on="1"/>
        <pt x="150" y="772" on="1"/>
        <pt x="252" y="772" on="1"/>
      </contour>
      <contour>
        <pt x="495" y="500" on="1"/>
        <pt x="495" y="0" on="1"/>
        <pt x="415" y="0" on="1"/>
        <pt x="415" y="116" on="1"/>
        <pt x="400" y="67" on="0"/>
        <pt x="319" y="-20" on="0"/>
        <pt x="238" y="-20" on="1"/>
        <pt x="162" y="-20" on="0"/>
        <pt x="81" y="81" on="0"/>
        <pt x="81" y="178" on="1"/>
        <pt x="81" y="500" on="1"/>
        <pt x="161" y="500" on="1"/>
        <pt x="161" y="178" on="1"/>
        <pt x="161" y="116" on="0"/>
        <pt x="204" y="60" on="0"/>
        <pt x="255" y="60" on="1"/>
        <pt x="316" y="60" on="0"/>
        <pt x="395" y="128" on="0"/>
        <pt x="415" y="160" on="1"/>
        <pt x="415" y="500" on="1"/>
      </contour>
    </TTGlyph>
    <TTGlyph name="underscore" xMin="70" yMin="-161" xMax="690" yMax="-81">
      <component glyphName="emdash" x="-10" y="-439" flags="0x4"/>
    </TTGlyph>
    <TTGlyph name="v" xMin="40" yMin="0" xMax="520" yMax="500">
      <contour>
        <pt x="430" y="500" on="1"/>
        <pt x="520" y="500" on="1"/>
        <pt x="320" y="0" on="1"/>
        <pt x="240" y="0" on="1"/>
        <pt x="40" y="500" on="1"/>
        <pt x="130" y="500" on="1"/>
        <pt x="266" y="137" on="1"/>
        <pt x="280" y="84" on="1"/>
        <pt x="295" y="138" on="1"/>
      </contour>
    </TTGlyph>
    <TTGlyph name="w" xMin="40" yMin="0" xMax="760" yMax="500">
      <contour>
        <pt x="680" y="500" on="1"/>
        <pt x="760" y="500" on="1"/>
        <pt x="608" y="0" on="1"/>
        <pt x="540" y="0" on="1"/>
        <pt x="410" y="361" on="1"/>
        <pt x="400" y="397" on="1"/>
        <pt x="390" y="361" on="1"/>
        <pt x="260" y="0" on="1"/>
        <pt x="192" y="0" on="1"/>
        <pt x="40" y="500" on="1"/>
        <pt x="120" y="500" on="1"/>
        <pt x="221" y="174" on="1"/>
        <pt x="232" y="119" on="1"/>
        <pt x="358" y="490" on="1"/>
        <pt x="442" y="490" on="1"/>
        <pt x="568" y="119" on="1"/>
        <pt x="579" y="174" on="1"/>
      </contour>
    </TTGlyph>
    <TTGlyph name="x" xMin="60" yMin="0" xMax="500" yMax="500">
      <contour>
        <pt x="500" y="500" on="1"/>
        <pt x="327" y="253" on="1"/>
        <pt x="500" y="0" on="1"/>
        <pt x="403" y="0" on="1"/>
        <pt x="288" y="167" on="1"/>
        <pt x="273" y="193" on="1"/>
        <pt x="157" y="0" on="1"/>
        <pt x="60" y="0" on="1"/>
        <pt x="226" y="258" on="1"/>
        <pt x="60" y="500" on="1"/>
        <pt x="157" y="500" on="1"/>
        <pt x="265" y="342" on="1"/>
        <pt x="279" y="315" on="1"/>
        <pt x="403" y="500" on="1"/>
      </contour>
    </TTGlyph>
    <TTGlyph name="y" xMin="40" yMin="-223" xMax="523" yMax="500">
      <contour>
        <pt x="523" y="500" on="1"/>
        <pt x="304" y="-50" on="1"/>
        <pt x="273" y="-118" on="0"/>
        <pt x="194" y="-194" on="0"/>
        <pt x="126" y="-223" on="0"/>
        <pt x="126" y="-220" on="1"/>
        <pt x="108" y="-148" on="1"/>
        <pt x="108" y="-150" on="0"/>
        <pt x="155" y="-126" on="0"/>
        <pt x="211" y="-68" on="0"/>
        <pt x="233" y="-17" on="1"/>
        <pt x="240" y="0" on="1"/>
        <pt x="40" y="500" on="1"/>
        <pt x="130" y="500" on="1"/>
        <pt x="266" y="137" on="1"/>
        <pt x="280" y="90" on="1"/>
        <pt x="293" y="134" on="1"/>
        <pt x="438" y="500" on="1"/>
      </contour>
    </TTGlyph>
    <TTGlyph name="z" xMin="85" yMin="0" xMax="485" yMax="500">
      <contour>
        <pt x="485" y="420" on="1"/>
        <pt x="193" y="80" on="1"/>
        <pt x="485" y="80" on="1"/>
        <pt x="485" y="0" on="1"/>
        <pt x="95" y="0" on="1"/>
        <pt x="85" y="80" on="1"/>
        <pt x="385" y="420" on="1"/>
        <pt x="85" y="420" on="1"/>
        <pt x="85" y="500" on="1"/>
        <pt x="475" y="500" on="1"/>
      </contour>
    </TTGlyph>
    <TTGlyph name="zero" xMin="55" yMin="-20" xMax="615" yMax="700">
      <contour>
        <pt x="248" y="-20" on="0"/>
        <pt x="121" y="70" on="0"/>
        <pt x="55" y="233" on="0"/>
        <pt x="55" y="340" on="1"/>
        <pt x="55" y="447" on="0"/>
        <pt x="121" y="610" on="0"/>
        <pt x="248" y="700" on="0"/>
        <pt x="335" y="700" on="1"/>
        <pt x="422" y="700" on="0"/>
        <pt x="549" y="610" on="0"/>
        <pt x="615" y="447" on="0"/>
        <pt x="615" y="340" on="1"/>
        <pt x="615" y="233" on="0"/>
        <pt x="549" y="70" on="0"/>
        <pt x="422" y="-20" on="0"/>
        <pt x="335" y="-20" on="1"/>
      </contour>
      <contour>
        <pt x="428" y="60" on="0"/>
        <pt x="535" y="208" on="0"/>
        <pt x="535" y="340" on="1"/>
        <pt x="535" y="472" on="0"/>
        <pt x="428" y="620" on="0"/>
        <pt x="335" y="620" on="1"/>
        <pt x="242" y="620" on="0"/>
        <pt x="135" y="472" on="0"/>
        <pt x="135" y="340" on="1"/>
        <pt x="135" y="208" on="0"/>
        <pt x="242" y="60" on="0"/>
        <pt x="335" y="60" on="1"/>
      </contour>
    </TTGlyph>
</ttFont>
